<svg xmlns="http://www.w3.org/2000/svg" viewBox="0 0 1024 1024">

<style>
.line{
fill:none;
stroke:#000;
stroke-width:18;
stroke-linecap:round;
stroke-linejoin:round;
}
.fill{
fill:#000;
}
</style>

<!-- Hair mass -->
<path class="fill" d="
M250 300
C220 240 320 180 420 210
C480 170 620 200 660 280
C720 280 760 340 710 390
C700 450 640 470 590 450
C520 480 430 470 390 420
C310 420 270 360 250 300
Z"/>

<!-- Face outline -->
<path class="line" d="
M420 300
C520 260 640 320 630 420
C620 520 530 560 460 530
C380 500 370 380 420 300
"/>

<!-- Ear -->
<circle cx="405" cy="420" r="28" class="line"/>

<!-- Eye -->
<ellipse cx="540" cy="390" rx="32" ry="18" class="line"/>
<circle cx="548" cy="390" r="8" class="fill"/>

<!-- Eyebrow -->
<path class="line" d="
M505 350
C540 330 590 330 620 350
"/>

<!-- Nose -->
<path class="line" d="
M610 410
L675 430
L610 450
"/>

<!-- Smile -->
<path class="line" d="
M560 480
C610 510 690 500 720 470
"/>

<!-- Chin line -->
<path class="line" d="
M520 530
C550 560 600 560 640 540
"/>

<!-- Neck -->
<path class="line" d="
M470 540
L520 620
M610 550
L590 620
"/>

<!-- Jacket -->
<path class="line" d="
M330 700
C420 620 630 620 720 700
L760 880
L270 880
Z"/>

<!-- Collar -->
<path class="line" d="
M470 620
L420 700
L520 700
Z"/>

<path class="line" d="
M590 620
L640 700
L540 700
Z"/>

<!-- Shirt pattern hint -->
<path class="line" d="M520 700 L520 880"/>
<path class="line" d="M560 700 L560 880"/>

</svg>