<svg xmlns="http://www.w3.org/2000/svg" viewBox="0 0 512 512">

<rect width="512" height="512" fill="white"/>

<g fill="#000">

<!-- hair -->
<path d="
M120 170
C100 120 170 80 220 110
C250 80 320 110 330 160
C360 160 380 210 340 230
C340 270 300 300 260 280
C220 300 170 280 160 250
C120 240 100 200 120 170
Z"/>

<!-- head -->
<path d="
M210 180
C260 150 330 190 320 240
C310 290 250 310 210 280
C170 250 170 210 210 180
Z"/>

<!-- ear -->
<circle cx="200" cy="230" r="12"/>

<!-- eye -->
<ellipse cx="275" cy="220" rx="14" ry="8"/>

<!-- nose -->
<path d="
M310 235
L345 250
L310 260
Z"/>

<!-- mouth -->
<path d="
M260 270
C290 285 315 275 330 260
C305 300 265 300 260 270
Z"/>

<!-- neck -->
<rect x="240" y="280" width="35" height="45"/>

<!-- jacket -->
<path d="
M160 330
C220 300 320 300 380 330
L410 450
L100 450
Z"/>

<!-- collar -->
<path d="M240 320 L200 360 L240 360 Z"/>
<path d="M275 320 L315 360 L275 360 Z"/>

</g>
</svg>