<?xml version="1.0" encoding="UTF-8"?>
<svg
  width="640px"
  height="640px"
  viewBox="0 0 640 640"
  version="1.1"
  xmlns="http://www.w3.org/2000/svg"
  xmlns:xlink="http://www.w3.org/1999/xlink"
>
  <title>画板-0</title>
  <defs>
    <radialGradient
      cx="26.0624053%"
      cy="100%"
      fx="26.0624053%"
      fy="100%"
      r="108.091458%"
      gradientTransform="translate(0.260624,1.000000),scale(0.764936,1.000000),rotate(-54.009826),translate(-0.260624,-1.000000)"
      id="radialGradient-1"
    >
      <stop stop-color="#99CDF1" offset="0%"></stop>
      <stop stop-color="#FFFFFF" stop-opacity="0" offset="100%"></stop>
    </radialGradient>
  </defs>
  <g id="画板-0" stroke="none" stroke-width="1" fill="none" fill-rule="evenodd">
    <rect fill="#00438F" x="0" y="0" width="640" height="640"></rect>
    <path
      d="M888.489309,252.077808 L908.366016,328.029408 L238.464746,640 L888.489309,252.077808 Z M734.616602,124.69818 L763.248242,196.480107 L238.464746,640 L734.616602,124.69818 Z M655.315234,-13.365918 L238.464746,640 L482.51018,-13.365918 L655.315234,-13.365918 Z M343.252098,-38.2164063 L238.464746,640 L200.297006,-38.2164063 L343.252098,-38.2164063 Z M43.1599609,-79.9708984 L238.464746,640 L-32.8512695,19.5279297 L43.1599609,-79.9708984 Z M-3.29609375,294.901074 L238.464746,640 L-3.29609375,448.695723 L-3.29609375,294.901074 Z"
      id="形状结合"
      fill="url(#radialGradient-1)"
      opacity="0.75"
    ></path>
    <path
      d="M0,640 L0,384.340833 C89.980662,381.624475 191.658979,395.144658 305.034951,424.90138 C418.410923,454.658102 530.065939,451.552424 640,415.584347 L640,640 L0,640 Z"
      id="路径-2"
      fill="#0167B0"
    ></path>
    <g id="编组" transform="translate(83.200000, 412.800000)">
      <path
        d="M35.8706587,76.7511277 C34.7665501,75.6280904 34.4570302,75.1191277 34.0412571,74.9255006 C28.74246,72.4692023 23.2588748,72.1870599 17.6921351,73.088809 C17.4057136,73.1330667 17.1793483,73.7305446 16.5556886,74.5769717 C19.9557886,74.8867751 22.8662002,75.1135955 25.7673725,75.4399955 C28.8256146,75.7885243 31.8746173,76.2311006 35.8706587,76.7511277 Z"
        id="路径"
      ></path>
      <path
        d="M209.323636,111.562089 C216.333136,106.716013 221.249871,100.062925 225.223602,92.5576667 C233.660215,76.612843 233.786285,60.4370093 226.570031,44.071234 C224.290683,38.89661 221.557482,33.9478624 218.188888,29.4149328 C213.282239,22.8234474 207.598997,17.063598 200.554198,12.7873462 C196.222428,10.1589658 191.668775,8.05934151 186.999137,6.15479239 C176.777371,1.98634524 166.353892,2.0376808 155.789215,4.2913117 C155.073136,4.44531837 154.3974,4.71739682 154.538599,5.88271394 C156.656577,5.88271394 158.799769,5.86731327 160.948005,5.88271394 C165.133533,5.91351527 169.142563,6.82728817 172.92971,8.64456685 C184.03901,13.968064 193.287515,21.4630552 200.024703,32.1049159 C206.751806,42.7262425 211.043233,54.2459412 212.878814,66.68968 C215.057306,81.4332517 214.300885,95.8431422 207.266172,109.364928 C206.686249,110.484043 206.146669,111.618559 205.586918,112.742807 C205.773501,112.968684 205.955042,113.189427 206.136583,113.410169 C207.200615,112.794143 208.320118,112.260253 209.323636,111.562089 Z"
        id="路径"
      ></path>
      <path
        d="M344.91018,81.710973 C341.047429,79.1219018 337.160346,77.6835289 331.113772,79.0942408 C337.105598,81.6390543 340.664195,82.2531289 344.91018,81.710973 Z"
        id="路径"
      ></path>
      <path
        d="M114.967442,109.377669 C113.361687,109.363658 111.755932,108.992366 110.15521,108.824234 C106.9437,108.473958 103.73219,107.857473 100.525713,107.87849 C92.8341957,107.927528 85.1426786,108.291815 77.4511614,108.522997 C77.3907568,108.887284 77.3202848,109.258576 77.2598802,109.629868 C84.5487001,110.722728 91.8375201,111.759543 99.1213062,112.936469 C103.389897,113.623009 107.628285,114.72988 111.90191,115.311338 C119.945787,116.404198 128.004765,116.77549 135.988238,114.519715 C139.401097,113.55996 142.81899,112.418061 146.241916,108.852256 C143.775396,109.090443 142.008562,109.39168 140.236694,109.405691 C131.815288,109.447724 123.393882,109.440719 114.967442,109.377669 Z"
        id="路径"
      ></path>
      <path
        d="M71.7413174,40.6838522 C70.6228558,38.1888284 67.8758652,37.8734928 65.5406159,37.2760149 C63.4634731,36.7449233 61.1097876,36.219364 57.9449102,37.8568962 C62.4126109,38.9356759 65.8970487,39.8042318 69.406068,40.5953369 C70.1496606,40.7557708 70.9547071,40.6783199 71.7413174,40.6838522 Z"
        id="路径"
      ></path>
      <path
        d="M69.5559665,41.6548179 C69.2855569,41.439062 69.0372216,41.1845807 68.7337006,41.0241468 C68.6619593,40.9854213 68.5295138,41.0518078 68.4081054,41.0960654 C68.6509222,41.3948044 68.8882204,41.6880112 69.1475928,41.9701535 C69.1586299,41.9812179 69.4124838,41.7709942 69.5559665,41.6548179 Z"
        id="路径"
      ></path>
      <path
        d="M69.1144814,41.508122 C69.0924072,41.480461 69.0703329,41.4528 69.0482587,41.4306712 C68.9820359,41.4306712 68.9158132,41.4362034 68.8495904,41.4306712 C68.8716647,41.480461 68.904776,41.5025898 68.9268503,41.5523797 C68.9875545,41.5302508 69.0427401,41.5302508 69.1144814,41.508122 Z"
        id="路径"
      ></path>
      <path
        d="M389.058683,63.8292374 C386.491207,63.0782146 385.222572,64.5166143 383.911649,65.5413149 C381.767051,67.2152047 379.513713,68.8445423 378.021557,71.9186441 C383.349824,69.5955651 385.089667,68.3226451 389.058683,63.8292374 Z"
        id="路径"
      ></path>
      <path
        d="M365.737436,129.551549 C363.301489,128.843929 360.876615,128.074777 358.545857,127.131283 C354.947299,125.675021 351.476074,123.962375 347.883053,122.495857 C342.645767,120.357613 337.07077,119.573078 331.468092,118.942373 C331.351831,119.352588 331.230034,119.757675 331.113772,120.167889 C333.184327,121.116511 335.182911,122.22409 337.330973,122.988115 C345.55783,125.916022 353.646282,129.182356 362.039226,131.735942 C365.145058,132.679436 368.134629,132.956331 371.279216,132.658925 C372.081971,132.58201 372.774001,132.289732 372.397537,131.156514 C370.238402,130.638618 367.95747,130.19251 365.737436,129.551549 Z"
        id="路径"
      ></path>
      <path
        d="M330.061153,121.83061 C320.035184,116.156881 309.158559,112.952275 297.137027,113.463293 C296.516423,113.491948 295.917218,113.807155 295.243114,114.002966 C295.526666,114.490104 295.569466,114.709794 295.708567,114.781432 C309.361861,121.916576 323.651809,127.886408 338.42861,132.88674 C344.896805,135.074087 351.702051,135.852553 358.630349,135.427501 C359.507755,135.37019 360.572412,135.575553 361.465868,134.009069 C356.174682,132.156033 351.102847,130.317324 345.982862,128.602788 C340.456274,126.744976 335.079487,124.672251 330.061153,121.83061 Z"
        id="路径"
      ></path>
      <path
        d="M425.594859,109.603754 C422.02549,104.747039 417.568765,101.021689 412.972455,97.3625897 C412.48391,96.9701794 411.850796,96.3790158 411.132934,97.3116273 C411.282489,97.7550001 411.357266,98.2952013 411.626464,98.7181891 C415.081174,104.181356 418.181939,109.940105 422.135164,114.995573 C426.262869,120.27018 431.656803,124.066877 438.725749,124.474576 C433.301904,120.412875 429.498233,114.914034 425.594859,109.603754 Z"
        id="路径"
      ></path>
      <path
        d="M154.925953,135.602951 C152.334425,135.669998 149.820179,135.962133 147.403825,136.867273 C146.754655,137.111518 145.935464,137.226456 146.35794,138.471622 C148.990684,138.471622 151.72132,138.380629 154.441651,138.495568 C157.728718,138.634452 161.077611,138.620084 164.282244,139.237878 C175.446937,141.392974 186.096416,145.133262 196.411005,149.524867 C204.680194,153.044857 213.320337,155.008388 222.171718,156.411595 C231.615596,157.905794 241.157364,157.680706 250.688828,157.618448 C254.176828,157.594503 257.623612,157.311946 262.131737,155.396305 C252.626033,154.903028 244.902972,152.206764 237.102628,149.797846 C232.063832,148.241388 227.040493,146.651407 222.001698,145.085371 C213.820095,142.537569 205.31906,141.206199 196.926219,139.439021 C183.092717,136.527247 169.104649,135.224612 154.925953,135.602951 Z"
        id="路径"
      ></path>
      <path
        d="M251.188995,64.9479422 C249.69949,58.3840593 247.130853,52.368028 243.467886,46.8533326 C239.825184,41.3748162 235.83797,36.1443835 229.6013,33.1932203 C230.33592,34.6352072 231.100938,36.0616889 231.800094,37.519181 C233.299732,40.6615753 234.931095,43.7471172 236.207814,46.9773745 C240.559804,58.0274389 241.745328,69.4444604 238.913242,81.0423764 C236.800576,89.6839609 232.934955,97.5967993 227.696355,104.75505 C221.363424,113.412139 213.206609,119.505697 203.028322,122.710112 C201.143642,123.304479 199.319758,124.090078 197.490807,124.849835 C192.662581,126.860347 187.844487,128.901869 183.021327,130.943392 C182.119518,131.325854 181.237974,131.760001 179.353293,132.628294 C183.811677,133.310525 187.201061,133.723998 190.544849,134.364881 C196.036767,135.419237 201.538817,136.452919 206.954739,137.822548 C210.886223,138.814883 214.427598,138.246358 217.908177,136.396066 C219.504075,135.543278 221.110106,134.705996 222.736403,133.91006 C232.347259,129.186132 240.291287,122.71528 246.082119,113.277761 C251.026872,105.220207 253.833627,96.8628848 253.853892,87.3426704 C253.853892,79.7244314 252.865955,72.338771 251.188995,64.9479422 Z"
        id="路径"
      ></path>
      <path
        d="M447.753977,124.425769 C447.40581,124.322886 447.037162,124.261156 446.673635,124.245724 C441.553532,124.045102 438.0053,121.34957 434.661873,117.594344 C429.58273,111.884342 425.60953,105.196953 419.296443,100.536357 C416.050297,98.1391855 412.875833,95.752302 409.209839,94.0341574 C406.905792,92.9487427 404.601746,91.7810216 402.492263,90.3663816 C395.672286,85.782948 388.411979,85.7932363 381.03391,88.3447324 C378.688903,89.1523633 376.492379,90.7213277 374.58258,92.3571659 C373.271834,93.4785897 371.971328,95.2173108 371.689722,96.8582933 C370.419936,104.157836 372.017409,110.81436 377.726324,115.845334 C380.434858,118.227074 383.788526,119.209606 387.372598,117.357713 C388.017731,117.023344 388.714065,116.524362 389.369439,116.544938 C389.901929,116.565515 390.91571,117.37829 390.854269,117.620065 C390.188655,120.233291 389.91217,123.150021 387.224115,124.657256 C383.194594,126.915536 378.985869,128.27359 374.208813,128.052392 C367.859885,127.76432 362.058808,125.871274 356.390853,123.222039 C353.416073,121.83312 350.446413,120.382471 347.348751,119.322777 C341.286548,117.259974 335.086103,115.500677 328.604052,116.179704 C326.284646,116.421479 324.328766,116.045956 322.270485,115.192028 C314.08856,111.80718 305.67623,109.615774 296.705809,110.361675 C295.072496,110.495423 293.418703,110.341099 291.780269,110.402828 C287.740508,110.567441 283.782668,110.09418 279.850429,109.132224 C274.668884,107.861621 269.415658,107.29062 264.121471,108.432621 C260.204592,109.276261 256.313314,110.227927 252.401555,111.102432 C251.398015,111.328775 250.373994,111.44709 249.032527,111.673432 C249.595738,110.407973 250.020707,109.595198 250.333033,108.741269 C252.217231,103.586836 254.249912,98.4889874 254.480317,92.8715805 C254.905285,82.5421363 254.285753,72.3361516 251.208571,62.4028066 C250.292072,59.4397788 249.375574,56.4355978 248.049467,53.6423268 C242.74504,42.4538103 235.151927,33.3023754 224.297308,27.0522386 C221.793577,25.6067337 219.243766,23.9760396 217.267406,21.9080931 C208.435228,12.6846401 197.718851,6.74315206 185.789011,2.65870052 C176.33218,-0.576967012 166.747346,-0.679849922 157.162513,1.38295243 C144.096009,4.19680003 134.398534,12.4788743 125.673878,22.0778499 C124.460413,23.4101835 123.646317,25.1180399 122.724698,26.6972925 C119.273749,32.5924833 118.884621,38.8786291 120.768819,45.2985227 C123.205988,53.616606 130.809341,60.5200493 139.508397,60.4583196 C142.421736,60.437743 145.406756,60.648653 148.238173,60.0982294 C156.374017,58.5241209 163.490961,55.3398948 166.399179,46.0701446 C167.290077,47.0886854 168.078573,47.8037216 168.657145,48.6627939 C173.080914,55.278165 174.724467,62.6034283 174.760308,70.5459889 C174.791029,78.6685947 171.539763,85.4434344 167.489761,92.0896704 C164.023452,97.7739512 159.292476,101.776096 153.081791,104.152692 C149.472118,105.531323 145.872685,106.796782 141.971167,106.6939 C130.307571,106.380107 118.603015,107.594125 106.98038,105.778242 C106.263566,105.66507 105.521151,105.731944 104.794096,105.7268 C93.4581876,105.644494 82.1683598,106.35953 70.9348531,107.820467 C68.0624752,108.19599 65.2361781,108.988188 62.3996409,109.615774 C60.4386413,110.047882 58.5134825,110.762919 56.5371226,110.942964 C45.7900258,111.920351 36.635281,116.884452 28.0335075,122.831084 C22.8417227,126.421698 17.4144132,128.36104 11.2139681,128.242725 C7.94222204,128.180995 4.67047602,127.877491 1.39873001,127.712878 C0.615354198,127.682013 -0.0195386131,127.93922 0.000459839138,128.942329 C1.43457073,130.176924 3.18052596,130.485573 5.01352295,130.639897 C13.5692156,131.370366 21.7613809,130.315816 29.2674524,125.778679 C31.3001334,124.549229 33.3532948,123.360931 35.396216,122.157201 C37.4340171,120.958615 39.3642961,119.471957 41.54034,118.628317 C47.0086103,116.519217 52.6458441,115.135442 58.5851639,115.05828 C74.6725286,114.857658 90.703572,115.408082 106.596373,118.201353 C114.542773,119.600561 122.565975,119.914353 130.609657,119.507966 C139.743922,119.044993 148.08969,116.292875 155.677683,111.02527 C161.627243,106.899665 165.595323,100.860438 170.776868,96.0095093 C173.833569,90.5978682 177.566125,85.572038 179.870171,79.7231445 C181.165557,76.4411797 181.979654,73.1437824 181.964294,69.5788896 C181.928453,61.4820045 179.82921,54.0229935 175.497603,47.2070007 C173.823329,44.5783424 171.974972,42.0628552 170.41334,39.3776112 C167.981291,35.1902768 164.171935,32.7519518 160.00417,30.7971765 C157.290516,29.5265726 154.387417,29.2539329 151.453598,30.1387259 C149.190512,30.8177531 147.541839,32.1706634 147.12199,34.6089883 C146.707262,37.001016 147.408716,38.945503 149.856126,40.1543772 C152.027049,38.662575 154.203093,36.965007 157.080591,37.0987548 C159.4768,38.379647 161.212515,40.0257736 161.535081,42.9425041 C161.96517,46.7800366 160.777306,49.6607581 157.536281,51.883029 C151.791525,55.8131562 145.457957,56.7751114 138.735261,56.2041112 C134.285891,55.8234445 130.706939,53.7297772 128.029125,50.2626232 C123.395432,44.2542612 122.356051,37.4845657 125.412752,30.5862665 C129.575396,21.1930568 136.876664,14.834893 146.707262,12.1805139 C157.295636,9.32036897 167.607524,10.2926125 177.253798,16.3266952 C187.437684,22.6900032 195.297043,31.0029423 200.847235,41.7181974 C209.771575,58.9407966 212.608112,77.017324 209.105961,96.0866714 C208.199703,101.014763 206.341105,105.634206 203.207602,109.559189 C201.046919,112.259865 198.451026,114.610739 196.080418,117.146803 C193.67909,119.72402 190.929594,121.766246 187.637368,123.088291 C183.403043,124.785859 178.994634,126.190211 175.036794,128.391905 C169.527563,131.452672 163.813527,132.316888 157.695004,131.864204 C148.135771,131.154311 139.820723,134.801511 131.946004,139.678161 C130.358772,140.655548 128.925143,141.602071 127.005105,141.663801 C126.252449,141.684377 125.673878,142.193648 126.093726,143.690594 C128.930263,143.824342 131.843602,143.942657 134.931024,143.258486 C143.768323,141.293422 152.759224,141.36544 161.586282,143.047576 C172.37946,145.105234 182.588946,149.235983 192.527067,153.829705 C201.420686,157.934733 210.698313,160.30104 220.267786,161.859716 C229.499333,163.361807 238.812801,163.264068 248.121148,163.13032 C250.123109,163.104599 252.14555,162.91941 254.111669,162.55932 C259.508258,161.561356 264.771724,160.285608 269.215974,156.633264 C271.00289,155.162039 273.291576,154.215516 275.47274,153.341011 C280.295878,151.422245 283.844109,148.01682 287.37186,143.824342 C284.038673,143.906648 281.831909,145.367586 279.640504,147.049721 C275.646824,150.115632 271.028491,152.101272 266.118312,152.543669 C258.443277,153.232984 250.865524,152.368768 243.477215,149.745253 C234.711598,146.633045 225.812858,143.911792 216.97556,141.00535 C216.033461,140.696701 215.127203,140.295458 214.200464,139.935368 C214.835357,138.253232 216.084662,138.44871 217.083082,138.201791 C222.838078,136.776862 228.086184,134.245943 232.724998,130.578167 C235.725378,128.201572 238.735999,125.752959 241.337012,122.959688 C245.965585,117.990443 251.346814,114.821649 258.018308,113.257829 C269.97887,110.459414 281.191896,111.997514 291.928752,117.748668 C296.27572,120.073822 300.540766,122.558444 304.887734,124.883598 C314.559609,130.063753 324.548931,134.570024 334.824978,138.356115 C343.160506,141.42717 351.803241,142.502296 360.67126,140.820161 C363.891805,140.208008 367.163551,139.847917 370.425056,139.451818 C373.548319,139.071151 376.482139,138.134917 379.211154,136.581385 C381.115832,135.49597 382.98467,134.35397 384.853508,133.206826 C391.586443,129.091509 395.810529,123.160309 397.059834,115.33092 C397.664006,111.529396 397.899531,107.578693 395.119315,104.322448 C394.443461,103.535394 393.486002,102.707187 392.528542,102.491133 C389.891689,101.899556 387.418679,102.449979 385.621523,104.682539 C385.206795,105.196953 384.761346,106.169197 384.97639,106.616737 C385.314317,107.316341 386.133533,108.031377 386.881068,108.216567 C387.879489,108.463486 389.139034,107.902774 389.845608,109.049918 C390.705786,110.45427 391.576203,111.915207 390.669945,113.684793 C388.795987,114.69819 386.783786,114.245505 384.786946,114.255793 C381.935049,114.266082 379.989409,112.846298 378.371457,110.680612 C376.55894,108.25772 375.857486,105.464449 375.294275,102.547718 C374.480178,98.3398072 376.108371,95.5105271 379.605402,93.3448419 C383.199714,91.1174269 387.085873,90.7933457 391.171715,90.8139223 C395.90269,90.839643 399.660846,92.3160128 402.34378,96.4313292 C406.439863,102.712331 410.971155,108.720693 414.790752,115.156019 C417.990816,120.552228 422.250742,124.559517 427.493728,127.738599 C432.004539,130.47014 436.730394,131.828195 442.055302,130.794221 C445.086403,130.202645 448.225026,130.146059 451.251007,129.533906 C453.36561,129.106942 455.439252,128.294167 457.415612,127.393941 C459.448293,126.467995 460.759039,124.81158 460.8,122.105759 C456.806319,125.701517 452.413271,125.773535 447.753977,124.425769 Z M137.844363,114.075748 C129.723879,115.732163 121.526594,115.459523 113.344669,114.657037 C108.997701,114.230073 104.686574,113.422442 100.344727,112.913171 C92.9359371,112.048955 85.5220275,111.287621 78.1081179,110.485135 C78.1695591,110.212495 78.2361205,109.939855 78.3026818,109.67236 C86.1261997,109.497459 93.9497175,109.235107 101.773235,109.199098 C105.039861,109.183666 108.301367,109.636351 111.567993,109.893558 C113.201306,110.022162 114.829499,110.294801 116.462812,110.299946 C125.028745,110.346243 133.594678,110.351387 142.16573,110.320522 C143.968007,110.315378 145.770283,110.089036 148.274014,109.914135 C144.797464,112.532505 141.320913,113.371 137.844363,114.075748 Z M207.994899,110.567441 C215.132323,97.0177618 215.900338,82.5781453 213.693574,67.8041594 C211.829856,55.3398948 207.477768,43.7964322 200.64243,33.148051 C193.801972,22.4842374 184.406583,14.9737849 173.132115,9.63930599 C169.292038,7.82342262 165.216436,6.90776472 160.96675,6.8717557 C158.785586,6.85632326 156.609542,6.8717557 154.459099,6.8717557 C154.310616,5.70403467 154.996709,5.43139495 155.728884,5.27707059 C166.460621,3.01879071 177.043874,2.96734925 187.417204,7.14439541 C192.163539,9.0528734 196.786993,11.1568289 201.180041,13.7906314 C208.332826,18.0757046 214.103182,23.8422918 219.085043,30.4525188 C222.505272,34.9947993 225.280368,39.9537555 227.594654,45.1390542 C234.921522,61.5385901 234.79352,77.7477927 226.227587,93.7255086 C222.192945,101.246249 217.205965,107.913062 210.083901,112.769135 C209.065,113.468739 207.928337,114.00373 206.842876,114.610739 C206.658552,114.389541 206.474228,114.168343 206.284784,113.942001 C206.858236,112.825721 207.411207,111.688865 207.994899,110.567441 Z M219.499771,146.041469 C224.502112,147.723604 229.499333,149.43146 234.506794,151.103308 C242.25863,153.690813 249.928545,156.586967 259.380256,157.116814 C254.900165,159.179616 251.474816,159.477977 248.008506,159.503697 C238.541435,159.570571 229.053884,159.812346 219.668734,158.207373 C210.872397,156.700138 202.291104,154.591038 194.068218,150.810091 C183.817771,146.087766 173.234517,142.070188 162.139253,139.760467 C158.959669,139.096872 155.631602,139.112305 152.359856,138.963124 C149.656442,138.839665 146.942787,138.937404 144.326414,138.937404 C143.911686,137.599926 144.720662,137.476466 145.365795,137.214115 C147.762003,136.241871 150.265734,135.928078 152.841146,135.85606 C166.93167,135.449673 180.832751,136.843736 194.580228,139.976521 C202.915756,141.874711 211.369047,143.304783 219.499771,146.041469 Z M219.166964,133.93215 C217.528531,134.724348 215.905458,135.562844 214.287506,136.406484 C210.769995,138.253232 207.191043,138.819088 203.217842,137.826268 C197.744452,136.46307 192.18402,135.434241 186.633828,134.384835 C183.25456,133.746961 179.82921,133.335429 175.32352,132.656402 C177.233318,131.792185 178.124216,131.365221 179.030474,130.97941 C183.899693,128.952617 188.774031,126.92068 193.653489,124.914463 C195.501847,124.158274 197.350204,123.371219 199.249762,122.784787 C209.53605,119.595416 217.779416,113.535613 224.179545,104.914025 C229.468612,97.7893836 233.380371,89.9136968 235.515454,81.3126855 C238.377592,69.769223 237.184608,58.4109497 232.781319,47.4076224 C231.496173,44.1925314 229.84238,41.1214766 228.326829,37.9938361 C227.625375,36.5431871 226.852239,35.1234029 226.104704,33.6881863 C232.407551,36.6254934 236.437073,41.8262245 240.118427,47.2841629 C243.820262,52.7729662 246.416154,58.7607516 247.921464,65.2938164 C249.616219,72.6448003 250.619759,80.0009284 250.599586,87.5731106 C250.578798,97.0537708 247.742261,105.36671 242.74504,113.386433 C236.908122,122.789931 228.8798,129.225257 219.166964,133.93215 Z M355.566517,137.111232 C348.935983,137.569061 342.418091,136.730565 336.233006,134.374547 C322.091281,128.988626 308.415485,122.558444 295.348981,114.873091 C295.215859,114.795929 295.174898,114.559298 294.903532,114.034595 C295.548665,113.823685 296.122117,113.479027 296.716049,113.453307 C308.220921,112.902883 318.624971,116.354605 328.225165,122.46585 C333.027822,125.526616 338.173526,127.759175 343.467712,129.760248 C348.367651,131.606996 353.216389,133.587492 358.285291,135.583421 C357.425114,137.2707 356.401093,137.054646 355.566517,137.111232 Z M368.868545,132.769573 C365.960326,133.067934 363.19547,132.79015 360.323093,131.843627 C352.561016,129.281842 345.080545,126.005022 337.472071,123.067715 C335.485471,122.301237 333.637114,121.190102 331.722195,120.238435 C331.834838,119.826903 331.94236,119.420516 332.049882,119.008984 C337.226306,119.641714 342.382251,120.433912 347.230988,122.573877 C350.548815,124.045102 353.76424,125.758103 357.092307,127.224184 C359.252991,128.175851 361.495596,128.942329 363.743322,129.652221 C365.796483,130.295239 367.911086,130.747924 369.907926,131.262339 C370.250973,132.404339 369.61096,132.697555 368.868545,132.769573 Z M421.267682,117.213677 C417.20744,112.110685 414.017616,106.2978 410.474505,100.783276 C410.203139,100.356312 410.121217,99.8110328 409.967614,99.3634921 C410.704909,98.4272577 411.350042,99.0188344 411.856932,99.4149336 C416.577668,103.10843 421.15504,106.8688 424.821034,111.771171 C428.830075,117.131371 432.736714,122.681904 438.307386,126.781788 C431.04708,126.370256 425.502008,122.537868 421.267682,117.213677 Z"
        id="形状"
        fill="#FFFFFF"
        fill-rule="nonzero"
      ></path>
      <path
        d="M59.5996944,40.8672375 C64.0657699,41.6686401 68.223317,43.1130285 72.2544181,44.9814149 C75.6128259,46.5422862 78.996523,48.0705424 82.7443848,49.7898305 C83.0124505,46.5329676 81.6771799,44.4735493 79.4770181,42.8381288 C76.5384112,40.6575682 73.5694573,38.5142822 70.5600406,36.41293 C67.449467,34.2416881 63.8432248,33.184023 59.9942062,33.1932806 C58.0772836,33.1932806 56.064262,33.5940429 54.258612,34.2277101 C52.0584502,35.0011568 51.7802688,37.4240019 53.7477698,38.5422381 C55.5382463,39.5579693 57.5512679,40.5038108 59.5996944,40.8672375 Z M63.7370101,36.8276093 C65.6589906,37.3308155 67.9198465,37.5963966 68.8403739,39.6977488 C68.901068,39.6977488 68.9617622,39.6930895 69.0224563,39.6977488 C69.0426876,39.7210454 69.062919,39.744342 69.0831504,39.7629793 C69.1944229,39.7257047 69.3158112,39.6697929 69.3815631,39.7024081 C69.6597445,39.8375284 69.8873475,40.051857 70.1351818,40.2335703 C70.0036779,40.3267567 69.7710171,40.5084701 69.7609014,40.4991514 C69.5231827,40.2615262 69.3006376,40.0145824 69.0831504,39.7629793 C69.0173984,39.7862759 68.96682,39.7862759 68.9061259,39.8002538 C68.8909524,39.75832 68.8555474,39.7396827 68.8353161,39.6977488 C68.1879121,39.6977488 67.5253347,39.75832 66.9133357,39.6231997 C64.030365,38.9615767 61.162568,38.2254045 57.4804581,37.3168376 C60.095363,35.9330203 62.0274591,36.3756555 63.7370101,36.8276093 Z"
        id="形状"
        fill="#FFFFFF"
        fill-rule="nonzero"
      ></path>
      <path
        d="M324.906075,148.362288 C325.919654,148.660441 327.013516,148.781723 328.072254,148.827204 C333.240502,149.039448 338.413768,149.206211 343.582016,149.367921 C344.354744,149.393188 344.961888,149.120303 344.906693,148.059082 C340.245234,147.058503 335.568723,146.083191 330.716591,146.325755 C329.321666,146.396504 327.856492,146.174153 326.496691,145.810306 C319.366516,143.900109 312.728077,140.979225 306.736923,136.522099 C302.291226,133.212102 297.750193,129.982959 292.968309,127.223786 C289.285305,125.101345 285.180813,123.686384 281.206782,122.114767 C279.801821,121.55889 278.196152,121.341592 275.928144,123.014278 C282.295626,124.565681 287.458856,126.546626 292.140386,129.523097 C296.505799,132.302484 300.780894,135.273902 304.840226,138.487884 C310.866504,143.243163 317.660492,146.234794 324.906075,148.362288 Z"
        id="路径"
        fill="#FFFFFF"
        fill-rule="nonzero"
      ></path>
      <path
        d="M189.880238,106.770561 C188.286021,108.860023 186.710614,110.965394 184.871856,113.410169 C185.727749,113.335925 186.287371,113.479111 186.61656,113.229861 C188.276615,111.967699 190.002508,110.758569 191.469752,109.23655 C196.337053,104.187902 198.979973,97.712693 200.27792,90.526855 C201.862732,81.7341469 201.552353,72.8353748 200.870461,63.9790282 C200.560082,59.9273823 199.436136,56.024226 197.291702,52.5559322 C197.207053,54.2635631 197.451594,55.9075556 197.65381,57.5462448 C197.954783,59.9698079 198.439162,62.3986742 198.472081,64.8275405 C198.542622,70.682275 198.580243,76.5582222 198.293378,82.4023503 C197.846621,91.5079473 195.227214,99.765032 189.880238,106.770561 Z"
        id="路径"
        fill="#FFFFFF"
        fill-rule="nonzero"
      ></path>
      <path
        d="M78.8627764,120.133428 C76.9494508,119.499255 74.9184609,119.18851 72.9335136,119.106068 C65.2699798,118.78264 57.6013301,118.801665 50.0247657,120.456856 C47.7277519,120.957852 45.5074757,122.067654 43.2974312,123.056963 C42.7142251,123.316974 42.3049576,124.160424 41.3892216,125.238517 C42.5965607,125.612679 42.9904806,125.917082 43.2667362,125.796589 C50.996776,122.587675 59.0542297,122.689143 67.0400617,122.169122 C71.9870825,121.845694 76.8215548,122.733535 81.6457953,124.249208 C88.7363546,126.475154 95.9957368,127.350312 103.321625,127.229819 C104.4113,127.210794 105.521438,127.179085 106.585533,126.925416 C107.72125,126.64638 109.097412,127.413729 110.371257,125.473161 C108.094707,125.187783 106.17115,124.934114 104.252708,124.705812 C95.7245971,123.722844 87.186254,122.89842 78.8627764,120.133428 Z"
        id="路径"
        fill="#FFFFFF"
        fill-rule="nonzero"
      ></path>
      <path
        d="M12.7360989,77.3512038 C16.0476794,78.1194416 19.4015804,78.6681828 22.7554814,79.1132729 C25.5539256,79.4851975 28.3788202,79.6437227 31.1931346,79.7961508 C34.9437904,79.997356 38.6944463,80.1436869 42.4451022,80.2169012 C42.9000477,80.2229496 43.3602834,79.655917 44.148503,79.1315643 C41.3765091,74.4611667 37.7369446,72.4613098 33.7376557,70.9248344 C28.0455461,68.7359667 22.231765,69.0530171 16.4021137,69.4005532 C14.1908667,69.5285929 12.5403665,70.9370287 11.4188728,73.1502849 C10.5989127,74.7843143 11.1279192,76.9792792 12.7360989,77.3512038 Z M17.3860657,73.1441878 C23.7553036,72.1503565 30.0399005,72.4613098 36.1076047,75.1684332 C36.5784204,75.3757354 36.9328548,75.942768 38.2024703,77.1804844 C33.6265643,76.6073546 30.1351216,76.1195847 26.6383889,75.7415629 C23.3162283,75.3818326 19.9834875,75.1318505 16.0899999,74.7904115 C16.7988686,73.8575514 17.0580817,73.1990619 17.3860657,73.1441878 Z"
        id="形状"
        fill="#FFFFFF"
        fill-rule="nonzero"
      ></path>
      <path
        d="M329.764104,81.6336621 C331.686355,82.6463014 333.679988,83.6916066 335.755203,84.1543718 C341.36389,85.4120046 347.110246,85.9346572 353.188024,88.5152542 C352.683242,85.4337818 351.704271,83.5827206 350.00127,82.3523093 C347.00827,80.2018118 344.020369,78.0132041 340.848911,76.200253 C337.718243,74.4090791 334.245956,74.3600804 330.80936,75.2529452 C329.442879,75.6068246 328.729046,76.7283499 328.448612,78.138423 C328.15798,79.5974947 328.525094,80.9803463 329.764104,81.6336621 Z M342.944521,81.4267787 C339.380454,81.9603199 336.397652,81.3560029 331.380426,78.851626 C336.453739,77.4633301 339.706778,78.8788475 342.944521,81.4267787 Z"
        id="形状"
        fill="#FFFFFF"
        fill-rule="nonzero"
      ></path>
      <path
        d="M347.673735,154.80659 C344.750031,154.639545 341.821198,154.528181 338.907752,154.218838 C336.178962,153.934243 333.445042,153.563031 330.752156,152.975279 C327.879745,152.34422 325.012463,151.564675 322.216992,150.556217 C319.595917,149.615815 317.108204,148.149529 314.497387,147.178192 C311.81476,146.182108 309.419375,143.961025 306.28024,143.837288 C307.172739,147.134884 307.121446,147.283369 308.767953,148.112408 C312.640578,150.073642 316.487558,152.14624 320.483287,153.699142 C327.115479,156.272875 333.906679,157.974262 340.949216,157.621611 C345.334772,157.398884 349.720328,157.244212 354.105885,157.015299 C354.726531,156.984364 355.331789,156.73689 355.947305,156.594592 C355.91653,156.136765 355.885754,155.678937 355.854978,155.214923 C353.126187,155.078812 350.397397,154.961261 347.673735,154.80659 Z"
        id="路径"
        fill="#FFFFFF"
        fill-rule="nonzero"
      ></path>
      <path
        d="M370.37492,77.392663 C370.944753,77.507979 371.992666,77.4636267 372.171343,77.1531607 C373.880842,74.2303452 376.961804,72.7622846 379.6999,70.9305353 C381.356279,69.8217282 383.167189,68.8992007 384.741473,67.701689 C386.03567,66.7126331 387.136703,65.4885101 388.223249,64.2909984 C388.628893,63.8386051 388.744792,63.1688856 389.058683,62.4459434 C388.546799,61.9713739 388.170129,61.3282658 387.6341,61.1819033 C385.601052,60.6230645 383.582491,60.7561214 381.699144,61.758483 C377.154967,64.1712472 373.41242,67.3202594 371.200695,71.7687934 C370.500476,73.1747608 370.138294,74.7359612 369.756796,76.2572446 C369.665043,76.5943219 370.075516,77.3305698 370.37492,77.392663 Z M380.936147,65.1336918 C381.984061,64.41962 382.99817,63.4172584 385.050535,63.9406153 C381.877821,67.0718866 380.487042,67.9589323 376.222952,69.5777906 C377.420567,67.4311401 379.221819,66.2957216 380.936147,65.1336918 Z"
        id="形状"
        fill="#FFFFFF"
        fill-rule="nonzero"
      ></path>
      <path
        d="M180.660655,105.35595 C177.86925,107.892078 174.550335,109.776632 171.006129,111.330387 C167.395985,112.914214 163.791335,114.513078 160.038323,116.167075 C177.605495,116.618165 195.23311,100.378923 195.908982,88.5152542 C192.42522,90.8458862 191.881226,94.7653576 189.166749,97.2613893 C186.276435,99.9077843 183.561958,102.714567 180.660655,105.35595 Z"
        id="路径"
        fill="#FFFFFF"
        fill-rule="nonzero"
      ></path>
      <path
        d="M57.7037449,127.48482 C54.0521844,126.75308 50.4785238,127.885923 46.8902569,128.026851 C40.2103355,128.292445 33.8955702,130.211232 27.5272486,131.989091 C25.6235683,132.52028 23.4423695,132.812977 22.0742515,135.116605 C23.549482,135.983853 24.87865,135.311736 26.0714931,134.905213 C34.8887946,131.880685 44.0225647,130.856248 53.1173849,129.620419 C56.5303768,129.159694 60.0115312,129.289781 63.4634731,129.148853 C63.3953106,128.997085 63.3222794,128.845316 63.2541169,128.693548 C61.4039929,128.287025 59.5587376,127.853401 57.7037449,127.48482 Z"
        id="路径"
        fill="#FFFFFF"
        fill-rule="nonzero"
      ></path>
      <path
        d="M417.020557,122.887886 C414.087129,119.905388 411.473807,116.662513 408.608599,113.410169 C407.821454,115.668347 409.180591,117.173798 410.20388,118.736059 C414.732588,125.647881 421.769667,129.676621 429.987462,131.953734 C433.277729,132.86742 436.982559,132.564436 440.498475,132.772881 C440.661151,132.782206 440.855314,132.322996 441.48503,131.48979 C436.646711,131.745433 432.422365,130.81281 428.407924,129.151133 C424.341007,127.470519 420.069433,125.984004 417.020557,122.887886 Z"
        id="路径"
        fill="#FFFFFF"
        fill-rule="nonzero"
      ></path>
    </g>
    <g
      id="编组-2"
      transform="translate(60.800000, 108.800000)"
      fill-rule="nonzero"
    >
      <path
        d="M175.062205,0 L174.860142,0.00377206158 L174.65536,0.0643999486 L174.183466,0.2929216 L173.472735,0.716752651 L172.476848,1.36988342 L171.149484,2.28630422 L168.783976,3.97650961 L165.184853,6.60509053 L162.832721,8.37234188 L161.852173,9.13598684 L161.304199,9.59443632 C161.270664,9.62591481 161.246799,9.65048902 161.233157,9.66774144 L161.038907,10.2612736 C161.017962,10.3355031 160.999334,10.4091067 160.985654,10.4769709 C160.713953,11.9169735 160.056397,12.5493348 158.408178,13.0882257 L157.280958,13.3403984 L156.689176,13.4419838 L156.412647,13.455987 C156.568922,13.455987 156.56738,13.5225049 156.495235,13.6177571 L156.282652,13.8353786 L156.036848,14.0624541 C155.257335,14.8370883 153.971331,15.9579564 154.586624,16.8712429 L156.607543,17.739933 L161.837728,17.9874241 C164.154417,18.0841548 166.563029,18.2439743 168.882603,18.4466816 L171.611772,18.7092237 L174.185978,19.0051809 L176.535731,19.3267962 C176.904791,19.382106 177.261604,19.4381616 177.604722,19.4948015 L178.591543,19.6663123 L179.686509,19.8832924 L180.353027,20.045656 L182.239347,20.565356 L184.099556,21.113299 L189.724494,22.8545901 L196.806908,25.1341443 L207.362353,28.6408385 L212.245028,30.3217044 L215.335138,31.4366228 L217.123631,32.1305097 L218.0462,32.5302745 L218.454662,32.7375023 C218.562741,32.7985385 218.642533,32.8514807 218.693403,32.8961662 C220.031572,34.1520833 220.990208,37.168765 220.990208,39.6996997 C220.990208,43.8536948 218.65317,49.8158141 214.057996,57.5770781 L212.502824,60.1565794 L210.788263,62.9323978 L208.951617,65.8360042 L206.994916,68.8645186 L204.920189,72.0150607 C204.564678,72.55016 204.204335,73.0902238 203.8392,73.6351921 L200.424777,78.6707072 L198.008152,82.1700511 L195.481619,85.779902 L192.84721,89.4973795 L190.106954,93.3196035 L187.26288,97.2436938 L184.317019,101.26677 L179.711814,107.480683 L176.520363,111.738624 L172.843016,116.600607 L169.498605,120.977433 L166.435608,124.924329 L163.602503,128.496526 L161.81604,130.697096 L160.093586,132.772043 L158.419876,134.737731 L156.779643,136.610523 L155.157621,138.406784 L153.538545,140.142878 L151.907148,141.835168 L150.248166,143.500019 C149.968522,143.776117 149.687092,144.051753 149.403559,144.327268 L147.674573,145.981643 L145.879836,147.649488 L144.004083,149.347169 L141.005151,151.985425 L138.860067,153.829285 L134.15129,157.794696 L131.557065,159.948974 L127.289011,163.448416 L122.755148,167.107891 L117.998992,170.89443 L113.064061,174.775061 L107.993871,178.716814 L102.831939,182.686716 L97.6217812,186.651798 L92.4069143,190.579088 L87.2308552,194.435616 L82.1371205,198.18841 L77.1692268,201.804499 C76.3541489,202.393957 75.5461275,202.976345 74.7460693,203.550976 L70.048531,206.900187 L65.5856254,210.030267 L63.4557589,211.502829 C49.721223,220.93563 39.2111124,230.36203 26.8016423,244.505733 L24.3635999,247.311492 L21.9518388,250.15694 L19.2952752,253.366235 L16.4860872,256.822282 L13.6164524,260.407986 L9.85556457,265.188227 L7.20335736,268.621095 L5.5666476,270.772092 L4.0669445,272.772545 L2.73156004,274.587761 L1.5878062,276.183044 L0.662994953,277.5237 C-0.446978728,279.159223 -0.110726584,280.779333 1.28000176,281.40486 C2.24846954,281.81732 2.99403112,281.627179 4.73973163,280.337777 L5.76585478,279.562895 C5.94573342,279.430679 6.1300464,279.296924 6.31880169,279.161628 L7.50470464,278.331317 L8.79760438,277.463806 L10.1978825,276.558899 L11.7059204,275.616399 L14.1708617,274.131731 L15.9499686,273.094387 L18.8233018,271.46653 L21.9433871,269.751874 L25.3115122,267.949755 L28.9289647,266.059507 L34.1423032,263.400941 L38.3465277,261.302478 L44.3469026,258.36388 L50.8012096,255.263098 L61.3404697,250.304385 L68.9429608,246.791253 L79.0997977,242.163831 L93.7248448,235.575858 L104.888987,230.610574 L126.925932,220.949623 L178.447396,198.44434 L189.673397,193.397687 L195.071575,190.864776 L197.321332,189.768247 L198.182462,189.340178 C200.791332,188.034618 202.945415,186.877254 205.246751,185.55082 L207.991814,183.93367 C229.525624,171.115971 243.012552,156.347912 252.276157,135.44573 L254.620546,130.222887 L255.750737,127.783322 L256.729073,125.776108 L257.722125,123.857089 L259.237894,121.05804 C262.572532,114.917824 265.899848,109.35214 270.129588,102.835014 L272.20499,99.670156 L274.29041,96.5760251 L280.31063,87.9259224 L281.881516,85.7305943 L282.861659,84.4038973 L283.941097,83.0222465 L284.605072,82.2497941 L284.989085,81.8490069 C285.049574,81.7893977 285.108386,81.7332982 285.16564,81.6805814 L285.491413,81.4038559 L285.78549,81.2022175 C285.878867,81.1468417 285.967913,81.1029644 286.053578,81.0695693 L286.301382,80.9998148 C286.421163,80.9796449 286.535478,80.9807738 286.647535,80.9997722 L286.869589,81.0605787 L287.091328,81.1629406 L287.318458,81.300761 C287.417372,81.3662913 287.536219,81.4732056 287.685536,81.63288 L288.02792,82.025946 L288.470292,82.5799298 L290.136608,84.8016251 C309.123732,110.964925 338.72946,139.948053 367.965973,160.934196 C381.736051,170.871312 391.376843,176.499546 404.712565,182.413958 L406.510919,183.194578 L408.678801,184.178493 L409.981928,184.80459 L410.879517,185.275545 C410.952424,185.317279 411.015673,185.355152 411.068549,185.388834 L411.301235,185.540177 L411.713201,185.71633 C411.796328,185.746879 411.884096,185.776576 411.972617,185.803252 L412.478542,185.950653 L414.462218,186.674193 L420.160698,188.828735 L425.856727,191.05199 L438.981843,196.068633 L451.063551,200.652077 L456.933398,202.917771 L463.426184,205.474819 L468.08322,207.356547 L472.385796,209.142485 L476.447492,210.878703 L479.404013,212.17595 L483.317472,213.93601 L488.135113,216.134787 L490.75223,217.297841 L493.173665,218.341307 L495.427827,219.275307 C496.154492,219.56952 496.858014,219.847177 497.543127,220.109962 L499.547975,220.855394 C501.833584,221.676954 503.951692,222.337014 506.105317,222.907902 L507.964714,223.377082 L509.869918,223.812707 C510.192847,223.883078 510.518869,223.952472 510.848575,224.0211 C520.250012,226.015587 531.37277,225.052239 533.99141,222.310582 C534.501633,221.776867 534.54046,220.027715 534.07149,219.509889 L533.764971,219.229945 L532.780012,218.433483 L530.029606,216.318701 L523.959433,211.789742 L519.222129,208.332904 L516.501005,206.389915 L514.888697,205.270446 L513.713171,204.49028 L512.096913,203.45351 L509.361599,201.757762 L506.276327,199.905902 L502.867147,197.91211 L497.862739,195.05744 L493.799072,192.787605 L488.016563,189.616338 L481.874324,186.310368 L475.434101,182.9033 L467.058848,178.553495 L463.632405,176.798748 L458.435067,174.163872 L454.865355,172.3729 L448.679823,169.306801 C444.595495,167.298269 440.599439,165.365562 436.748968,163.537236 L433.889307,162.18601 C422.756527,157.001849 417.032804,153.008613 407.481111,143.593649 L406.266543,142.388063 C393.004112,129.208634 377.833003,109.508197 362.929998,86.1584642 L360.423647,82.192387 L358.407706,78.9397054 L351.91442,68.2049798 L350.198758,65.2808419 L348.958697,63.0563552 L348.421672,62.010666 L348.026402,61.1520102 L347.836186,60.6714727 L347.700788,60.2560497 L347.616937,59.8985367 L347.581357,59.5917289 L347.590776,59.3284219 L347.64192,59.1014112 C347.653739,59.0662005 347.66716,59.0322019 347.682115,58.9992654 L347.789709,58.8131903 L347.930845,58.6454 L348.102248,58.4886899 L348.140118,58.5355334 L348.39971,58.2935144 C348.459572,58.2431065 348.497962,58.2186203 348.530468,58.2070264 L348.576764,58.1976759 L348.625749,58.1980137 L348.88364,58.1229134 L349.823554,57.9226356 L354.60698,57.0749462 L358.963464,56.3352302 L361.433368,55.8890173 L364.372742,55.3191894 L366.122902,54.9486401 L366.99231,54.7449422 L367.573426,54.5860402 L368.638762,54.2265229 C369.694307,53.8430382 370.731442,53.3810128 371.848836,52.7806992 L372.996636,52.1320768 C373.193613,52.0155528 373.393733,51.8946342 373.597453,51.7690444 L374.866624,50.9572391 L376.244117,50.0200486 C376.483944,49.8526638 376.729198,49.6795014 376.980336,49.5002848 L378.561423,48.3501218 L380.305648,47.0413807 L382.491943,45.3632215 L383.747198,44.4283514 L384.947748,43.5650765 L386.029791,42.8196889 L386.92952,42.238481 L387.559171,41.8653802 L388.527846,41.2487168 C388.783121,41.0930306 388.938809,41.0233828 388.898998,41.1482836 C389.16502,40.0908567 389.730499,39.6849679 391.338281,39.3315194 L392.323087,39.1403291 L392.901388,39.0418827 C399.905101,38.0107895 404.665364,34.6142368 407.753197,28.4260996 C410.246757,23.4701906 408.974248,19.6635186 405.448506,19.6635186 C404.781586,19.6635186 403.433622,19.8612986 402.287335,20.1332142 L401.735085,20.2747775 C401.479105,20.3409158 401.144831,20.4125379 400.745543,20.488153 L399.365915,20.7254864 L396.739347,21.1068405 L394.733076,21.3649343 L391.540017,21.7354991 L389.405066,21.9584468 L387.358074,22.1516821 L385.478714,22.3062602 L383.846661,22.4132359 C383.10574,22.4533323 382.487436,22.4722235 382.036567,22.4648777 C380.132611,22.4288389 377.600066,21.9907353 374.496873,21.1719489 L372.566942,20.6351662 C371.901115,20.4411254 371.212926,20.2320283 370.502838,20.008046 L368.30734,19.2916145 L365.983229,18.4868982 L363.533288,17.5949234 L360.960297,16.6167163 L358.267037,15.5533033 L355.456289,14.4057108 C354.978195,14.2074875 354.495321,14.0057994 354.007726,13.800668 L351.025961,12.5287305 L346.34693,10.4681194 C336.547434,6.08594469 331.81052,4.63331135 323.304019,3.38699667 L321.027778,3.0752714 C320.645916,3.02689851 320.262657,2.98031871 319.87777,2.93553564 L317.547072,2.68842691 L315.166246,2.48461399 C313.559863,2.36320942 311.912691,2.27078505 310.209986,2.20757354 L307.612437,2.13469498 C307.171956,2.12620986 306.727544,2.1195578 306.278969,2.11474246 L303.535739,2.10791999 L300.681566,2.14535303 L297.705394,2.22721606 C297.198584,2.24457209 296.686231,2.26378664 296.168102,2.28486335 L292.988198,2.43369853 L289.65865,2.62739994 C289.090641,2.66343205 288.515936,2.70134086 287.934304,2.74113 L284.359559,3.0024579 C283.749301,3.04978291 283.131657,3.09899551 282.506395,3.15009936 L278.661572,3.47944636 L272.527372,4.05895421 L267.882134,4.51338959 L264.642849,4.7997175 L263.015262,4.92532891 L258.76691,5.18113573 L253.317901,5.40498554 L235.791801,5.96927238 L222.751194,6.48926388 L215.297573,6.80748964 L198.56826,7.55273086 L196.674443,5.51576648 L196.430755,5.28018289 C196.280414,5.14428796 196.146014,5.04623223 195.969007,4.95350573 L195.417074,4.71775627 L194.616289,4.46087112 L192.29349,3.86139031 L182.978349,1.60661216 L178.823305,0.655603292 L176.857127,0.252493006 L175.778503,0.0718343136 L175.379509,0.0233090895 L175.062205,0 Z M105.610437,221.626107 L106.119778,221.735071 C106.689114,221.87869 106.844403,222.061021 106.886838,222.826555 L106.902849,223.518564 C106.902849,223.65496 106.902849,223.802595 106.902849,223.962533 L106.622141,224.28416 L106.478859,224.413673 L106.398195,224.466913 C106.288474,224.543204 106.151114,224.62767 105.979981,224.725222 L105.333454,225.075113 L103.856953,225.816745 L101.425124,226.97773 L99.3497644,227.938579 L95.8872317,229.500986 L83.1028271,235.208172 L72.7084095,239.911825 L63.219177,244.273585 L57.8491222,246.777401 L50.946905,250.038493 L44.2141448,253.268596 L39.4984451,255.559432 L35.6807088,257.44635 L25.8624033,262.35575 L23.3965054,263.614381 L22.0269726,264.330403 L20.5289255,265.087334 L19.4894548,265.585197 L18.9741376,265.810065 L18.6710986,265.919233 L18.4150261,265.977046 C18.0948197,266.125486 17.9880843,266.174966 17.5731672,265.684658 L16.9488624,264.882091 C16.8589361,264.762448 16.7611379,264.631788 16.6544489,264.48925 C16.6544489,264.365165 16.7789526,264.107219 17.0087098,263.737437 L17.4298794,263.10164 L17.9944916,262.314609 L19.0787822,260.886634 L20.8918004,258.607528 L22.4638722,256.689116 L25.3440117,253.258704 L28.9512867,249.075658 L30.8230676,246.951171 L33.2934787,244.222253 L35.1282271,242.234402 L37.8967592,239.282876 L39.6871519,237.408662 L44.3306618,232.629412 L45.0543015,232.216114 L50.2598941,230.950407 C67.6723491,226.833181 82.3668295,224.20729 98.8225907,222.293222 L105.084753,221.653894 L105.610437,221.626107 Z M311.509509,6.72747256 C318.774647,7.17175983 325.277352,8.06208091 330.257193,9.29930758 L331.703356,9.68055296 L333.001387,10.0458769 L334.215455,10.4191941 C334.414368,10.4834083 334.612456,10.5489521 334.811057,10.6163235 L336.019501,11.0464706 L337.304407,11.5443977 C337.528495,11.6343625 337.758443,11.7281478 337.995588,11.8262521 L339.515507,12.4706891 L342.259605,13.6840054 L343.330181,14.1661778 C346.505441,15.610813 349.407638,16.8833717 352.159343,18.0337292 L355.396996,19.3586938 C355.92718,19.5708091 356.453306,19.7788344 356.976354,19.9831687 L360.085547,21.168074 C361.114862,21.5504064 362.139709,21.9211666 363.167933,22.2835468 L366.400991,23.3923138 L376.128456,26.6402862 L372.742146,29.0154934 C370.836934,30.3137483 367.889161,31.6420617 365.832566,32.1357603 L365.106893,32.2800858 C364.888631,32.3143326 364.656101,32.3667905 364.432275,32.4268008 L363.809884,32.6188305 L363.377553,32.7922239 C363.328993,32.816017 363.294095,32.8363689 363.275731,32.8519473 C362.681076,33.380677 362.405818,34.4958592 362.701042,35.3112569 C363.056744,36.3395492 363.570723,36.7458346 364.857079,36.8168088 L365.315313,36.8284412 C366.864232,36.8284412 367.820257,37.0557328 368.676155,37.6917319 L369.105951,38.0448279 L369.28443,38.1433096 L369.549556,38.2292777 L369.936303,38.3060594 L370.820965,38.4112851 L372.752609,38.5504863 L376.276672,38.7456992 L377.640164,38.8483006 L378.512226,38.9444207 C378.575181,38.9543647 378.625716,38.9640008 378.662725,38.9732661 C379.333939,39.1638414 379.668191,39.5261663 379.78198,39.936417 C379.902211,40.3698942 379.77631,40.8568775 379.541705,41.2512989 C379.44782,41.4091395 379.341657,41.5384388 379.203133,41.6850963 L378.764794,42.1083408 L378.120085,42.6693296 L377.273986,43.3660996 L375.718567,44.5903795 L374.641676,45.4046813 L373.675658,46.0999386 L372.847926,46.6492796 C372.473201,46.8829924 369.784585,48.2611153 369.549556,48.3501218 C368.273766,48.6670731 369.980111,46.6888374 369.503472,45.4568946 L369.199655,44.6294501 C368.88993,43.9026609 368.487355,43.6434216 366.915244,43.5525306 L365.935271,43.5178511 L364.684496,43.5057727 L359.884012,43.5039986 L359.263658,44.092186 C358.73639,44.5812231 358.692389,44.680081 358.692389,45.3578922 C358.692389,46.8787452 359.074534,47.5030887 360.329404,47.8626814 L360.856637,47.9939527 L361.084747,48.0859969 C361.13808,48.1118219 362.701042,48.5719151 363.533288,48.7360958 C364.365534,48.9002766 366.722393,48.785769 365.665187,49.5002848 C364.607981,50.2148006 361.493788,50.7689128 360.900235,51.0034268 L360.691165,51.0783704 L360.145473,51.2326703 L359.405219,51.402489 L357.508368,51.7735799 L353.010553,52.5491019 L348.756161,53.2289457 L344.546619,53.868392 L340.406754,54.4643973 L336.361391,55.0139178 L332.435356,55.5139099 L328.653472,55.9613299 L325.040566,56.353134 L321.621463,56.6862787 L318.420987,56.9577202 C317.907173,56.9976495 317.403502,57.0348809 316.910493,57.0693511 L314.207059,57.2361399 L308.385278,57.5488613 L308.76999,53.2447017 C308.797774,52.7209832 308.695636,52.6170131 308.26972,52.1364318 C307.639891,51.3787783 306.632319,51.1167648 305.797093,51.4678428 C305.721542,51.4987573 305.621145,51.5580086 305.497646,51.6438631 L305.05959,51.9795026 L304.493392,52.4643604 L303.426722,53.4486792 L301.653683,55.1862923 L300.106587,56.7628889 L298.412467,58.5348134 L295.358162,61.8267403 L292.80122,64.6715206 L290.700207,67.0717504 C289.495486,68.4647972 288.339403,69.8314923 287.261055,71.1385174 C273.763549,87.5204414 258.735178,110.597094 251.33434,126.237756 L249.039345,131.201264 C248.785698,131.742869 248.534798,132.274508 248.286378,132.796603 L246.823481,135.818024 C241.07385,147.472642 236.445267,154.116748 229.249502,161.59251 C221.855946,169.254677 212.819686,175.938164 201.028061,182.474165 L197.878366,184.181061 L195.255461,185.536863 L192.219296,187.035209 L188.019239,189.020037 L182.756328,191.422778 L174.231551,195.21629 L156.196051,203.087747 L135.177926,212.168823 L131.896316,213.540353 L130.299441,214.179756 L129.072942,214.642066 L128.110151,214.970137 L127.345976,215.189839 C127.117121,215.247886 126.91052,215.292183 126.715323,215.327043 L126.153096,215.407618 L125.563762,215.44705 L124.03953,215.530965 L117.552132,216.017851 L111.751682,216.503464 L105.015373,217.107936 L100.406513,217.557021 L97.6586157,217.854952 C95.4992738,218.106171 93.2285327,218.39389 90.9025588,218.70914 L86.1936091,219.373687 C81.4442997,220.069625 76.6238366,220.851762 72.1815521,221.64833 L67.8819692,222.447051 C67.1919292,222.580087 66.5165548,222.712859 65.857926,222.845035 L59.0414473,224.27078 L58.4017057,224.338147 C57.5624817,224.245483 56.8312317,223.526701 57.0036072,222.517192 C57.0730284,222.110631 57.2393209,221.852494 57.4969487,221.56499 C57.6154111,221.43279 57.7650852,221.288336 57.9517665,221.124948 L58.6286279,220.571302 L59.3430822,220.028847 L60.7805656,218.987154 L63.4630034,217.111625 C66.3942317,215.097445 69.4051153,212.998321 72.4753817,210.829228 L78.6890849,206.402189 L85.0251024,201.815191 L91.4473945,197.094861 L94.6796311,194.693016 L101.45262,189.603978 L106.295576,185.918373 L111.042592,182.266716 L117.194518,177.473633 L121.654248,173.952903 L127.363925,169.382655 L131.447568,166.065253 L136.596596,161.814376 L140.215353,158.772702 L144.685333,154.937731 L147.750403,152.244187 L149.647858,150.54287 L151.422935,148.921655 L153.070802,147.384481 L154.586624,145.935288 L155.965571,144.578017 L157.202808,143.316607 L158.163524,142.285378 L159.231735,141.093737 L160.40139,139.749745 L162.332834,137.465732 L164.458473,134.884271 L167.559425,131.026643 L170.058729,127.856928 L173.583745,123.313704 L177.284492,118.467375 L180.294553,114.474782 C183.41046,110.31962 186.613573,105.980708 189.789062,101.610945 L191.900701,98.6948762 L195.888953,93.1290023 C199.830778,87.5882965 203.606878,82.1583067 206.979245,77.1559399 L210.157539,72.3972534 L212.521038,68.79149 L213.965434,66.5462085 L215.308282,64.420675 L216.552551,62.4088034 L218.240622,59.5907982 L219.251446,57.8364539 L220.174091,56.1744696 L221.011529,54.5987592 L221.766731,53.1032364 C221.88591,52.8603268 222.001786,52.6205048 222.114421,52.3836435 L222.75184,50.9969905 C222.85176,50.771465 222.948563,50.5486468 223.042311,50.3284089 L223.568631,49.0369317 C223.650406,48.8265081 223.72925,48.6184113 223.805224,48.4125145 L224.227133,47.2025191 L224.583146,46.0392372 C224.691165,45.6585859 224.788697,45.2847058 224.876237,44.9165825 L225.109375,43.8284688 C225.143401,43.6496568 225.175052,43.4720304 225.204391,43.2954628 L225.353173,42.247749 C225.414185,41.7292306 225.455501,41.2179593 225.478792,40.7105115 L225.501835,39.6996997 L225.501835,35.180424 L228.49761,35.180424 C230.257621,35.180424 231.286551,33.6520704 230.570474,32.1641849 L230.434473,31.9125162 L230.266936,31.6888681 C230.202374,31.6174111 230.127365,31.5482576 230.036717,31.4790409 L229.712667,31.2688351 L229.263639,31.0440509 L228.658486,30.7904887 L227.866061,30.4939488 L225.594804,29.7151374 C225.362207,29.6375514 225.117915,29.5563998 224.861277,29.4713866 L223.403026,28.9534541 C223.162026,28.8642184 222.923086,28.773923 222.68776,28.6831635 L221.331646,28.137802 C220.473096,27.7768681 219.722201,27.4275681 219.178579,27.1280218 L218.811283,26.9132864 C217.786164,26.2863924 217.182495,26.0491685 216.443179,25.994184 L215.743043,25.9637229 L215.104963,25.8701931 L213.909638,25.608105 L212.264753,25.1737295 L208.821385,24.1626639 L199.972537,21.3799748 L183.757814,16.1638038 C183.735006,16.1551932 183.722545,16.1497929 183.720908,16.1477485 C182.463529,16.1477485 181.299803,14.7343189 182.56269,13.4793364 C182.80186,13.2416632 183.095945,13.0737778 183.633679,12.8438688 L183.800721,12.799727 L184.323459,12.7133799 L185.077255,12.6303625 L186.587433,12.5140417 L188.479273,12.4102582 L191.452082,12.2966153 L192.255227,12.273369 L199.881935,12.1374501 L212.867696,14.733506 L216.299383,15.3590273 L218.547638,15.7299742 L220.3648,15.9914214 L221.269152,16.0936273 C221.396589,16.1053863 221.511818,16.1144138 221.613994,16.1205692 L223.107399,16.1937281 L223.753886,16.2054174 C224.110909,16.2018236 224.335299,16.1742586 224.518878,16.1155334 L224.775116,16.0031769 L225.039003,15.8386887 C225.658742,15.4075859 226.075952,14.3551436 225.918141,13.5710297 C225.527206,11.6285862 226.290089,11.0510857 228.576288,10.7913363 L229.274763,10.724644 L231.031607,10.6350188 L251.022614,9.99573973 L254.71564,9.85036723 L259.035375,9.63907582 L261.984014,9.45790284 L263.880578,9.32219134 L265.765004,9.17197399 L268.322714,8.94532363 L274.957661,8.31719354 L281.323696,7.75051498 L285.612679,7.3999488 L289.530037,7.11096919 L293.115868,6.8815768 L296.410273,6.70977228 L299.453351,6.59355628 L301.362245,6.54597413 L304.075555,6.51796268 L305.801733,6.52733232 L308.296661,6.58197168 L310.714026,6.68353574 C310.979798,6.69735351 311.244877,6.71200323 311.509509,6.72747256 Z M436.862019,186.346445 L451.0742,186.658645 L453.872762,186.748878 L457.680481,186.907281 L459.980611,187.030749 L462.107448,187.170508 L464.075894,187.328272 C464.391597,187.356161 464.701321,187.384872 465.005377,187.41444 L466.764178,187.60242 L468.401843,187.812687 L469.933275,188.046951 L471.373377,188.306927 L472.737049,188.594328 C472.958787,188.644608 473.177961,188.696103 473.394882,188.748847 L474.671853,189.080594 L475.909651,189.444048 L478.238447,190.195605 L479.523545,190.588449 C479.594084,190.588449 479.690445,190.605168 479.812238,190.63829 L480.253531,190.786553 L480.845094,191.031349 L482.009102,191.57541 L483.498118,192.326041 L485.975459,193.637194 L488.192264,194.845025 L493.514447,197.810256 L499.623564,201.284691 L504.622245,204.202036 L507.090774,205.684217 L508.90969,206.81408 L509.984833,207.51558 L512.72759,209.364673 L515.166039,211.047789 L519.586925,214.167174 L521.389074,215.471095 L523.238528,216.85232 L523.881865,217.35863 L524.311408,217.723605 C524.859401,218.486711 524.859401,218.486711 524.502077,219.688872 L524.133943,220.048387 C524.005344,220.166378 523.938006,220.208587 523.833204,220.250918 L523.712256,220.296101 C523.486199,220.382502 523.24072,220.432973 522.922907,220.475083 L522.260979,220.541151 C522.133057,220.550837 521.99601,220.559877 521.849352,220.568297 L520.850184,220.611582 C513.704155,220.503987 503.848863,217.928167 493.816453,213.598078 L476.946483,206.112017 L472.249558,204.108017 L469.174072,202.829256 L463.950093,200.724186 L456.297959,197.730551 L438.687208,190.995528 C438.16399,190.796857 437.632427,190.595094 437.092322,190.390161 L434.988337,189.484785 L434.442193,189.209965 C434.41252,189.191816 434.375185,189.168327 434.319182,189.133094 L434.165245,189.126522 C434.058654,189.106567 434.004414,189.032685 433.988479,188.771895 L433.986845,188.36072 L434.072323,186.795815 L434.463015,186.515944 L434.647919,186.442855 L435.044182,186.379608 L435.822134,186.348204 L436.862019,186.346445 Z M342.412344,60.0861811 L344.327109,63.771069 L345.033947,65.0755363 L346.835818,68.2799039 L349.037507,72.0792883 L352.780545,78.3719263 L355.999903,83.6471168 L357.246157,85.652046 C358.145178,87.0790944 359.044092,88.491879 359.942543,89.8899637 L362.636148,94.0396827 L365.324827,98.0985873 C365.772411,98.7673582 366.2197,99.4322362 366.66665,100.093167 L369.343922,104.010945 C371.12558,106.590637 372.900383,109.105426 374.665471,111.551825 L377.305461,115.169695 C379.498785,118.141115 381.674698,121.002952 383.827618,123.748392 L386.399728,126.986614 C387.253181,128.047108 388.102598,129.088542 388.947621,130.11048 L391.469153,133.117374 C399.827943,142.942495 407.711662,150.774488 414.76305,156.177395 L415.957227,157.071928 L417.705276,158.322681 L418.876372,159.115582 L420.079685,159.891551 L421.3389,160.664139 L422.677703,161.446902 L424.119779,162.253392 L426.528342,163.537267 L428.332224,164.462375 L432.522189,166.539645 L446.192765,173.15388 L450.267582,175.157027 L452.217859,176.131035 L464.29679,182.078633 L432.023668,181.718477 L414.831625,181.553675 L414.24129,181.427161 L407.513343,178.478245 L404.314573,177.036721 C403.801682,176.801913 403.298292,176.569496 402.803478,176.338977 L399.930092,174.974655 C395.287937,172.725503 391.318168,170.566892 387.094956,168.003191 L384.523209,166.412394 C384.087047,166.137838 383.646499,165.85824 383.200638,165.573103 L380.454327,163.791867 C379.983516,163.482597 379.505541,163.166798 379.019477,162.843974 C350.517398,143.889712 319.345246,114.966174 298.775459,88.4529079 L293.955882,82.1118482 L292.448454,80.0539347 L291.864424,79.2186726 L291.383886,78.4949582 L290.999616,77.8696052 L290.70439,77.329427 L290.490985,76.8612373 C290.432684,76.7157069 290.386816,76.5799769 290.352177,76.4518495 L290.280742,76.0880772 C290.253972,75.8578372 290.266849,75.6492165 290.311101,75.4446332 L290.398446,75.1385886 L290.524271,74.8254137 C290.548047,74.7718911 290.573125,74.717522 290.599355,74.6620316 L290.6868,74.5249933 L291.221721,73.8064776 L292.095738,72.7121617 L294.502169,69.8348203 L295.855136,68.2711403 L300.983026,62.395986 L308.046357,62.1539495 C315.109646,61.8996349 322.561,61.3255524 330.622127,60.3900299 L339.152826,59.3514422 L340.156448,59.2534039 L340.859112,59.2125449 L341.19313,59.2154053 L341.442549,59.2411791 L341.627034,59.2888663 C341.653463,59.2985848 341.678006,59.3091746 341.701072,59.320615 L341.825027,59.3992977 L342.108924,59.6787528 C342.230794,59.79986 342.333247,59.9488916 342.412344,60.0861811 Z M402.640392,25.5098622 C403.254015,26.1196441 403.20915,26.6457315 402.973866,27.2787345 C402.903565,27.4678689 402.805455,27.6618497 402.677166,27.881125 C402.478455,28.2207689 402.193121,28.6412023 401.836161,29.124613 C400.281223,31.1642852 397.607114,32.9987294 394.952671,33.8777726 C394.419182,34.0443912 393.409915,34.1914195 392.141541,34.3118264 L390.508988,34.4430863 C390.22079,34.4626833 389.925694,34.4811028 389.625434,34.4982888 L387.775773,34.5861512 C387.46179,34.5981777 387.14611,34.6088581 386.830466,34.6181361 L384.9509,34.656526 L383.155402,34.6585591 C382.580158,34.6528773 382.032793,34.6406861 381.527173,34.6215354 L380.149415,34.5427548 L379.551511,34.4834242 L374.195633,33.7966684 L379.638342,29.6818301 L380.714392,28.8503028 C382.307898,27.6629297 383.01887,27.4191327 384.602489,27.384619 L385.10551,27.379809 C386.035132,27.379809 387.101749,27.2008579 387.362124,27.07306 C387.702858,26.8849484 388.372808,26.7003827 389.24973,26.531587 L390.393558,26.3373841 C390.598145,26.3065393 390.809056,26.2765209 391.025312,26.2474267 L392.379161,26.084734 L396.562435,25.6679732 L398.350029,25.4553779 L399.184249,25.3212545 C401.072422,24.9459835 401.989584,24.8631269 402.640392,25.5098622 Z"
        id="形状"
        fill="#00244E"
        transform="translate(267.200000, 140.800000) scale(-1, 1) rotate(-180.000000) translate(-267.200000, -140.800000) "
      ></path>
      <path
        d="M342.412344,100.395003 L344.327109,104.079891 L345.033947,105.384358 L346.835818,108.588726 L349.037507,112.38811 L352.780545,118.680748 L355.999903,123.955939 L357.246157,125.960868 C358.145178,127.387916 359.044092,128.800701 359.942543,130.198786 L362.636148,134.348505 L365.324827,138.407409 C365.772411,139.07618 366.2197,139.741058 366.66665,140.401989 L369.343922,144.319767 C371.12558,146.899459 372.900383,149.414248 374.665471,151.860647 L377.305461,155.478517 C379.498785,158.449938 381.674698,161.311774 383.827618,164.057214 L386.399728,167.295436 C387.253181,168.35593 388.102598,169.397364 388.947621,170.419302 L391.469153,173.426196 C399.827943,183.251317 407.711662,191.08331 414.76305,196.486217 L415.957227,197.380751 L417.705276,198.631503 L418.876372,199.424404 L420.079685,200.200373 L421.3389,200.972961 L422.677703,201.755724 L424.119779,202.562214 L426.528342,203.846089 L428.332224,204.771197 L432.522189,206.848467 L446.192765,213.462702 L450.267582,215.465849 L452.217859,216.439857 L464.29679,222.387455 L432.023668,222.027299 L414.831625,221.862498 L414.24129,221.735983 L407.513343,218.787067 L404.314573,217.345543 C403.801682,217.110735 403.298292,216.878318 402.803478,216.647799 L399.930092,215.283477 C395.287937,213.034325 391.318168,210.875715 387.094956,208.312013 L384.523209,206.721216 C384.087047,206.44666 383.646499,206.167062 383.200638,205.881925 L380.454327,204.100689 C379.983516,203.791419 379.505541,203.47562 379.019477,203.152796 C350.517398,184.198535 319.345246,155.274996 298.775459,128.76173 L293.955882,122.42067 L292.448454,120.362757 L291.864424,119.527495 L291.383886,118.80378 L290.999616,118.178427 L290.70439,117.638249 L290.490985,117.170059 C290.432684,117.024529 290.386816,116.888799 290.352177,116.760672 L290.280742,116.396899 C290.253972,116.166659 290.266849,115.958039 290.311101,115.753455 L290.398446,115.447411 L290.524271,115.134236 C290.548047,115.080713 290.573125,115.026344 290.599355,114.970854 L290.6868,114.833815 L291.221721,114.1153 L292.095738,113.020984 L294.502169,110.143642 L295.855136,108.579962 L300.983026,102.704808 L308.046357,102.462772 C315.109646,102.208457 322.561,101.634374 330.622127,100.698852 L339.152826,99.6602642 L340.156448,99.562226 L340.859112,99.5213669 L341.19313,99.5242274 L341.442549,99.5500011 L341.627034,99.5976884 C341.653463,99.6074068 341.678006,99.6179967 341.701072,99.6294371 L341.825027,99.7081198 L342.108924,99.9875748 C342.230794,100.108682 342.333247,100.257714 342.412344,100.395003 Z"
        id="路径"
        fill="#FFFFFF"
        transform="translate(377.281820, 160.954411) scale(1, -1) translate(-377.281820, -160.954411) "
      ></path>
      <path
        d="M311.509509,55.636059 C318.774647,56.0803463 325.277352,56.9706674 330.257193,58.207894 L331.703356,58.5891394 L333.001387,58.9544634 L334.215455,59.3277806 C334.414368,59.3919948 334.612456,59.4575385 334.811057,59.52491 L336.019501,59.9550571 L337.304407,60.4529842 C337.528495,60.5429489 337.758443,60.6367343 337.995588,60.7348385 L339.515507,61.3792755 L342.259605,62.5925919 L343.330181,63.0747642 C346.505441,64.5193995 349.407638,65.7919581 352.159343,66.9423157 L355.396996,68.2672802 C355.92718,68.4793956 356.453306,68.6874209 356.976354,68.8917552 L360.085547,70.0766605 C361.114862,70.4589928 362.139709,70.8297531 363.167933,71.1921332 L366.400991,72.3009003 L376.128456,75.5488727 L372.742146,77.9240799 C370.836934,79.2223347 367.889161,80.5506482 365.832566,81.0443467 L365.106893,81.1886723 C364.888631,81.2229191 364.656101,81.2753769 364.432275,81.3353872 L363.809884,81.527417 L363.377553,81.7008104 C363.328993,81.7246034 363.294095,81.7449553 363.275731,81.7605338 C362.681076,82.2892635 362.405818,83.4044456 362.701042,84.2198434 C363.056744,85.2481356 363.570723,85.6544211 364.857079,85.7253953 L365.315313,85.7370276 C366.347926,85.7370276 368.827024,86.3110427 372.752609,87.4590728 L376.276672,87.6542856 L378.512226,87.8530072 C379.986313,88.0812265 380.760701,88.3329862 380.835391,88.6082861 C380.952546,89.0401086 379.775126,89.7674554 379.541705,90.1598854 C379.44782,90.317726 379.341657,90.4470252 379.203133,90.5936828 L378.764794,91.0169273 L378.120085,91.5779161 L377.273986,92.2746861 L375.718567,93.498966 L374.641676,94.3132678 L373.675658,95.008525 L372.847926,95.557866 C372.473201,95.7915789 372.285789,96.1111056 371.842738,96.301226 C371.399688,96.4913464 371.018058,96.6966838 369.549556,97.321101 C368.570555,97.7373791 367.331558,98.1609874 365.832566,98.591926 C368.480524,96.2930024 369.704159,94.8841875 369.503472,94.3654811 L369.199655,93.5380366 C368.88993,92.8112474 368.487355,92.5520081 366.915244,92.4611171 L365.935271,92.4264375 L364.684496,92.4143592 L359.884012,92.4125851 L359.263658,93.0007725 C358.73639,93.4898096 358.692389,93.5886675 358.692389,94.2664786 C358.692389,95.7873316 359.074534,96.4116752 360.329404,96.7712679 L360.856637,96.9025392 C361.900856,97.1815804 362.885272,97.3903719 363.809884,97.5289138 C365.196804,97.7367267 366.961439,97.9829017 368.251033,97.321101 L365.832566,98.591926 C364.857079,98.90984 361.493788,99.6774993 360.900235,99.9120133 L360.691165,99.9869568 L360.145473,100.141257 L359.405219,100.311075 L357.508368,100.682166 L353.010553,101.457688 L348.756161,102.137532 L344.546619,102.776978 L340.406754,103.372984 L336.361391,103.922504 L332.435356,104.422496 L328.653472,104.869916 L325.040566,105.26172 L321.621463,105.594865 L318.420987,105.866307 C317.907173,105.906236 317.403502,105.943467 316.910493,105.977938 L314.207059,106.144726 L308.385278,106.457448 L308.76999,102.153288 C308.797774,101.62957 308.695636,101.5256 308.26972,101.045018 C307.639891,100.287365 306.632319,100.025351 305.797093,100.376429 C305.721542,100.407344 305.621145,100.466595 305.497646,100.55245 L305.05959,100.888089 L304.493392,101.372947 L303.426722,102.357266 L301.653683,104.094879 L300.106587,105.671475 L298.412467,107.4434 L295.358162,110.735327 L292.80122,113.580107 L290.700207,115.980337 C289.495486,117.373384 288.339403,118.740079 287.261055,120.047104 C273.763549,136.429028 258.735178,159.505681 251.33434,175.146343 L249.039345,180.10985 C248.785698,180.651456 248.534798,181.183095 248.286378,181.705189 L246.823481,184.72661 C241.07385,196.381228 236.445267,203.025335 229.249502,210.501097 C221.855946,218.163263 212.819686,224.846751 201.028061,231.382751 L197.878366,233.089647 L195.255461,234.445449 L192.219296,235.943795 L188.019239,237.928623 L182.756328,240.331364 L174.231551,244.124876 L156.196051,251.996334 L135.177926,261.07741 L131.896316,262.44894 L130.299441,263.088343 L129.072942,263.550653 L128.110151,263.878724 L127.345976,264.098426 C127.117121,264.156473 126.91052,264.20077 126.715323,264.235629 L126.153096,264.316205 L125.563762,264.355636 L124.03953,264.439551 L117.552132,264.926438 L111.751682,265.412051 L105.015373,266.016523 L100.406513,266.465607 L97.6586157,266.763538 C95.4992738,267.014757 93.2285327,267.302477 90.9025588,267.617726 L86.1936091,268.282274 C81.4442997,268.978212 76.6238366,269.760348 72.1815521,270.556916 L67.8819692,271.355637 C67.1919292,271.488673 66.5165548,271.621445 65.857926,271.753622 L59.0414473,273.179366 L51.4612667,275.082037 C55.6638124,271.825294 57.8273123,270.14246 57.9517665,270.033534 L58.6286279,269.479889 L59.3430822,268.937434 L60.7805656,267.895741 L63.4630034,266.020212 C66.3942317,264.006032 69.4051153,261.906908 72.4753817,259.737815 L78.6890849,255.310775 L85.0251024,250.723778 L91.4473945,246.003447 L94.6796311,243.601602 L101.45262,238.512565 L106.295576,234.82696 L111.042592,231.175303 L117.194518,226.382219 L121.654248,222.861489 L127.363925,218.291242 L131.447568,214.973839 L136.596596,210.722963 L140.215353,207.681289 L144.685333,203.846318 L147.750403,201.152773 L149.647858,199.451457 L151.422935,197.830241 L153.070802,196.293067 L154.586624,194.843875 L155.965571,193.486603 L157.202808,192.225194 L158.163524,191.193964 L159.231735,190.002323 L160.40139,188.658331 L162.332834,186.374319 L164.458473,183.792857 L167.559425,179.93523 L170.058729,176.765515 L173.583745,172.22229 L177.284492,167.375961 L180.294553,163.383368 C183.41046,159.228206 186.613573,154.889295 189.789062,150.519531 L191.900701,147.603463 L195.888953,142.037589 C199.830778,136.496883 203.606878,131.066893 206.979245,126.064526 L210.157539,121.30584 L212.521038,117.700076 L213.965434,115.454795 L215.308282,113.329261 L216.552551,111.31739 L218.240622,108.499385 L219.251446,106.74504 L220.174091,105.083056 L221.011529,103.507346 L221.766731,102.011823 C221.88591,101.768913 222.001786,101.529091 222.114421,101.29223 L222.75184,99.9055769 C222.85176,99.6800515 222.948563,99.4572332 223.042311,99.2369953 L223.568631,97.9455181 C223.650406,97.7350946 223.72925,97.5269978 223.805224,97.321101 L224.227133,96.1111056 L224.583146,94.9478237 C224.691165,94.5671723 224.788697,94.1932922 224.876237,93.8251689 L225.109375,92.7370552 C225.143401,92.5582432 225.175052,92.3806169 225.204391,92.2040493 L225.353173,91.1563354 C225.414185,90.6378171 225.455501,90.1265457 225.478792,89.619098 L225.501835,88.6082861 L224.583146,83.4031814 L228.49761,84.0890104 C230.257621,84.0890104 231.286551,82.5606568 230.570474,81.0727713 L230.434473,80.8211026 L230.266936,80.5974545 C230.202374,80.5259975 230.127365,80.456844 230.036717,80.3876274 L229.712667,80.1774216 L229.263639,79.9526374 L228.658486,79.6990752 L227.866061,79.4025353 L225.594804,78.6237239 C225.362207,78.5461379 225.117915,78.4649862 224.861277,78.379973 L223.403026,77.8620406 C223.162026,77.7728049 222.923086,77.6825095 222.68776,77.59175 L221.331646,77.0463885 C220.473096,76.6854545 219.722201,76.3361546 219.178579,76.0366083 L218.811283,75.8218729 C217.786164,75.1949788 217.182495,74.9577549 216.443179,74.9027704 L215.743043,74.8723094 L215.104963,74.7787796 L213.909638,74.5166915 L212.264753,74.0823159 L208.821385,73.0712504 L199.972537,70.2885613 C190.051596,67.251574 184.646689,65.5915824 183.757814,65.3085865 C182.424503,64.8840925 181.290654,64.7472751 181.061084,64.2676138 C180.831514,63.7879524 182.046657,62.9007258 182.56269,62.3879228 C182.80186,62.1502496 183.095945,61.9823643 183.633679,61.7524553 L183.800721,61.7083134 L184.323459,61.6219664 L185.077255,61.538949 L186.587433,61.4226282 L188.479273,61.3188447 L191.452082,61.2052017 L192.255227,61.1819555 L199.881935,61.0460365 L223.107399,65.1023146 L223.753886,65.1140038 C224.110909,65.1104101 224.335299,65.082845 224.518878,65.0241199 L224.775116,64.9117634 L225.039003,64.7472751 C225.658742,64.3161724 225.196813,63.1720367 225.039003,62.3879228 C224.926401,61.8284398 223.304764,61.1019944 220.174091,60.2085865 C225.656512,59.8619548 228.690069,59.6701694 229.274763,59.6332305 C229.859457,59.5962915 230.445072,59.5664164 231.031607,59.5436053 L251.022614,58.9043262 L254.71564,58.7589537 L259.035375,58.5476623 L261.984014,58.3664893 L263.880578,58.2307778 L265.765004,58.0805605 L268.322714,57.8539101 L274.957661,57.22578 L281.323696,56.6591014 L285.612679,56.3085353 L289.530037,56.0195557 L293.115868,55.7901633 L296.410273,55.6183587 L299.453351,55.5021427 L301.362245,55.4545606 L304.075555,55.4265491 L305.801733,55.4359188 L308.296661,55.4905581 L310.714026,55.5921222 C310.979798,55.60594 311.244877,55.6205897 311.509509,55.636059 Z"
        id="路径"
        fill="#FFFFFF"
        transform="translate(216.152415, 165.254293) scale(1, -1) translate(-216.152415, -165.254293) "
      ></path>
      <path
        d="M436.862019,60.9446455 L451.0742,61.2568451 L463.950093,61.5054816 L471.371509,61.9264723 L473.426738,62.4108873 C473.574563,62.4444076 474.238557,62.7049545 475.418719,63.1925281 L482.009102,66.1736104 L483.498118,66.9242418 L485.975459,68.2353945 L488.192264,69.4432259 L493.514447,72.4084566 L499.623564,75.8828917 L504.622245,78.8002368 L507.090774,80.2824172 L508.90969,81.4122811 L509.984833,82.1137807 L512.72759,83.9628733 L515.166039,85.6459893 L519.586925,88.7653743 L521.389074,90.0692954 L523.238528,91.4505209 L523.881865,91.9568303 L525.098834,92.789098 C526.051589,93.2259837 526.408858,93.8451469 526.170642,94.6465874 C525.58185,94.8940022 524.818924,95.0673056 523.881865,95.1664977 C522.944806,95.2656898 521.934245,95.2801182 520.850184,95.2097828 C513.704155,95.1021873 503.848863,92.5263675 493.816453,88.1962789 L476.946483,80.7102175 L472.249558,78.7062177 L469.174072,77.4274566 L463.950093,75.3223866 L456.297959,72.328752 L438.687208,65.5937287 C438.16399,65.3950579 437.632427,65.1932942 437.092322,64.9883612 L434.988337,64.0829852 L434.442193,63.8081658 C434.41252,63.790017 433.018263,63.2277616 432.96226,63.1925281 L431.424888,62.4108873 L430.925632,61.7687091 C430.659707,61.2414421 430.826125,60.9778086 431.424888,60.9778086 C432.02365,60.9778086 433.230082,60.9778086 435.044182,60.9778086 L435.822134,60.9464046 L436.862019,60.9446455 Z"
        id="路径"
        fill="#BBD9F8"
        transform="translate(478.522536, 78.099100) scale(1, -1) translate(-478.522536, -78.099100) "
      ></path>
      <path
        d="M105.610437,15.339091 C110.382879,14.9548059 112.769099,14.8746418 112.769099,15.0985989 L106.398195,18.1798968 C106.288474,18.2561885 106.151114,18.3406538 105.979981,18.4382064 L105.333454,18.7880968 L103.856953,19.5297295 L101.425124,20.6907146 L99.3497644,21.6515635 L95.8872317,23.2139703 L83.1028271,28.9211565 L72.7084095,33.6248086 L63.219177,37.9865688 L57.8491222,40.4903855 L50.946905,43.7514769 L44.2141448,46.9815805 L39.4984451,49.2724158 L35.6807088,51.1593345 L25.8624033,56.0687341 L23.3965054,57.3273648 L22.0269726,58.0433873 L20.5289255,58.800318 L19.4894548,59.298181 L18.9741376,59.523049 L18.6710986,59.6322166 L18.4150261,59.6900297 C18.0948197,59.83847 16.4318497,60.6761112 16.0169327,60.1858029 C15.6155706,59.594055 15.946163,58.682261 17.0087098,57.4504209 L17.4298794,56.8146242 L17.9944916,56.0275931 L19.0787822,54.5996184 L20.8918004,52.3205125 L22.4638722,50.4021004 L25.3440117,46.9716877 L28.9512867,42.7886417 L30.8230676,40.6641554 L33.2934787,37.9352376 L35.1282271,35.9473859 L37.8967592,32.9958598 L39.6871519,31.1216463 L44.3306618,26.3423964 L45.0543015,25.9290977 L50.2598941,24.6633915 C67.6723491,20.5461652 82.3668295,17.9202745 98.8225907,16.006206 L105.084753,15.366878 L105.610437,15.339091 Z"
        id="路径"
        fill="#BBD9F8"
        transform="translate(64.310485, 37.656492) scale(1, -1) translate(-64.310485, -37.656492) "
      ></path>
      <path
        d="M402.640392,247.420031 C403.254015,248.029813 403.20915,248.5559 402.973866,249.188903 C402.903565,249.378037 402.805455,249.572018 402.677166,249.791294 C402.478455,250.130937 402.193121,250.551371 401.836161,251.034781 C400.281223,253.074454 397.607114,254.908898 394.952671,255.787941 C394.419182,255.95456 393.409915,256.101588 392.141541,256.221995 L390.508988,256.353255 C390.22079,256.372852 389.925694,256.391271 389.625434,256.408457 L387.775773,256.49632 C387.46179,256.508346 387.14611,256.519027 386.830466,256.528305 L384.9509,256.566694 L383.155402,256.568728 C382.580158,256.563046 382.032793,256.550855 381.527173,256.531704 L380.149415,256.452923 L379.551511,256.393593 L374.195633,255.706837 L379.638342,251.591999 L380.714392,250.760471 C382.307898,249.573098 383.01887,249.329301 384.602489,249.294787 L385.10551,249.289978 C386.035132,249.289978 387.101749,249.111026 387.362124,248.983229 C387.702858,248.795117 388.372808,248.610551 389.24973,248.441755 L390.393558,248.247553 C390.598145,248.216708 390.809056,248.186689 391.025312,248.157595 L392.379161,247.994902 L396.562435,247.578142 L398.350029,247.365546 L399.184249,247.231423 C401.072422,246.856152 401.989584,246.773295 402.640392,247.420031 Z"
        id="路径"
        fill="#FF9E03"
        transform="translate(388.665305, 251.755084) scale(1, -1) translate(-388.665305, -251.755084) "
      ></path>
    </g>
    <path
      d="M15.1864746,456.395508 C23.692311,446.995651 35.8323989,442.295723 51.6067383,442.295723 C75.2682474,442.295723 88.3596206,461.847844 109.010778,466.097021 C122.778217,468.929807 136.140293,468.929807 149.097006,466.097021 C125.882653,474.461719 107.581731,475.86843 94.1942399,470.317155 C74.1130026,461.990243 60.4554533,452.223535 46.1651855,452.223535 C36.6383404,452.223535 26.3121034,453.614193 15.1864746,456.395508 Z"
      id="路径-9"
      fill="#00438F"
    ></path>
    <path
      d="M479.186475,581.195508 C487.692311,571.795651 499.832399,567.095723 515.606738,567.095723 C539.268247,567.095723 552.359621,586.647844 573.010778,590.897021 C586.778217,593.729807 600.140293,593.729807 613.097006,590.897021 C589.882653,599.261719 571.581731,600.66843 558.19424,595.117155 C538.113003,586.790243 524.455453,577.023535 510.165186,577.023535 C500.63834,577.023535 490.312103,578.414193 479.186475,581.195508 Z"
      id="路径-9备份"
      fill="#00438F"
    ></path>
    <path
      d="M373.586475,473.332884 C378.796929,467.574776 386.23363,464.695723 395.89658,464.695723 C410.391004,464.695723 418.410439,476.672843 431.0608,479.275779 C439.494375,481.011069 447.679634,481.011069 455.616579,479.275779 C441.396072,484.399775 430.185403,485.261489 421.984574,481.860923 C409.683331,476.760073 401.317072,470.777242 392.563226,470.777242 C386.727329,470.777242 380.401745,471.629123 373.586475,473.332884 Z"
      id="路径-9备份-2"
      fill="#00438F"
    ></path>
    <path
      d="M143.186475,566.45383 C146.660111,562.615092 151.617912,560.695723 158.059878,560.695723 C167.722828,560.695723 173.069117,568.68047 181.502692,570.41576 C187.125075,571.57262 192.581914,571.57262 197.873211,570.41576 C188.392873,573.831757 180.919094,574.406234 175.451875,572.139189 C167.251046,568.738623 161.67354,564.750069 155.837642,564.750069 C151.947044,564.750069 147.729988,565.317989 143.186475,566.45383 Z"
      id="路径-9备份-3"
      fill="#00438F"
    ></path>
    <path
      d="M370.62515,492.001913 C375.011664,487.354442 380.488654,485.805284 387.05612,487.354442 C393.623585,488.903599 400.332056,492.976621 407.181531,499.573508 C397.114717,495.119926 389.958512,492.596061 385.712917,492.001913 C381.467322,491.407766 376.438066,491.407766 370.62515,492.001913 Z"
      id="路径-10"
      fill="#00438F"
    ></path>
    <path
      d="M120.537912,592.804477 C130.905317,581.820305 143.850032,578.158915 159.372057,581.820305 C174.894082,585.481696 190.749367,595.108171 206.937912,610.699731 C185.000789,597.292855 167.227872,589.659786 153.619162,587.800525 C140.010452,585.941264 128.983369,587.609248 120.537912,592.804477 Z"
      id="路径-10备份"
      fill="#00438F"
    ></path>
    <path
      d="M562.62515,464.509015 C568.108292,458.699675 574.954529,456.763229 583.163862,458.699675 C591.373194,460.636122 599.758783,465.727399 608.320626,473.973508 C597.047989,467.788318 587.76862,464.289596 580.48252,463.477344 C573.196419,462.665091 567.243963,463.008981 562.62515,464.509015 Z"
      id="路径-10备份-2"
      fill="#00438F"
    ></path>
    <path
      d="M24.5469677,526.789898 C22.8642104,526.232147 21.0779681,525.958849 19.3322199,525.886342 C12.5921921,525.601889 5.84766491,525.618621 -0.815873937,527.07435 C-2.83608254,527.514973 -4.78880088,528.491037 -6.73252052,529.361128 C-7.24544653,529.589806 -7.60539461,530.331614 -8.41077844,531.27979 C-7.3489316,531.608863 -7.00248158,531.876584 -6.75951662,531.770611 C0.0390027554,528.948393 7.1254806,529.037633 14.1489675,528.580277 C18.49984,528.295824 22.7517267,529.076675 26.9946147,530.409699 C33.2307152,532.367404 39.6152942,533.1371 46.0583649,533.031127 C47.0167267,533.014395 47.9930858,532.986507 48.9289508,532.763407 C49.9278068,532.517997 51.1381322,533.192875 52.2584706,531.486158 C50.2562594,531.23517 48.5645034,531.01207 46.8772468,530.81128 C39.3768286,529.946766 31.8674118,529.22169 24.5469677,526.789898 Z"
      id="路径"
      fill="#FFFFFF"
      fill-rule="nonzero"
      transform="translate(21.923846, 529.391525) rotate(9.000000) translate(-21.923846, -529.391525) "
    ></path>
    <path
      d="M44.5629644,461.748055 C39.0514985,460.986119 37.3822497,460.837755 34.6588021,460.944718 C31.2788201,461.079106 27.5266355,462.176592 23.4022482,464.237175 C21.3753055,465.59381 20.0157062,466.854936 19.3234504,468.020551 C20.443131,468.678782 21.4519522,468.168653 22.3573045,467.860108 C29.049521,465.564531 29.2650147,465.392669 35.0198252,464.506737 C40.7746357,463.620804 48.1173494,463.598068 50.7373281,463.491106 C50.6855937,463.375916 50.630164,463.260725 50.5784296,463.145535 C49.1742096,462.83699 50.0744304,462.50999 44.5629644,461.748055 Z"
      id="路径"
      fill="#FFFFFF"
      fill-rule="nonzero"
      transform="translate(35.030389, 464.627484) scale(-1, 1) rotate(10.000000) translate(-35.030389, -464.627484) "
    ></path>
    <path
      d="M631.15421,522.018838 C625.960932,522.479565 625.283256,522.733241 620.298925,522.606589 C615.314594,522.479938 613.394627,522.086893 610.701742,521.499142 C607.82933,520.868082 606.042613,520.230236 602.106679,518.552542 C599.482723,517.434079 597.248278,516.242629 595.403343,514.978192 C592.018002,512.833414 589.278952,511.719779 587.186196,511.637288 C588.078695,514.934884 588.027402,515.083368 589.673909,515.912408 C593.546535,517.873642 597.393514,519.94624 601.389243,521.499142 C608.021435,524.072875 614.812636,525.774261 621.855172,525.42161 C626.240728,525.198883 629.781945,524.8323 633.965749,524.21523 C638.149553,523.59816 640.325803,522.748887 640.94132,522.606589 C640.910544,522.148762 643.67011,520.91139 640.94132,520.775279 C638.212529,520.639168 636.347489,521.558111 631.15421,522.018838 Z"
      id="路径"
      fill="#FFFFFF"
      fill-rule="nonzero"
      transform="translate(614.666751, 518.552542) scale(-1, -1) rotate(-12.000000) translate(-614.666751, -518.552542) "
    ></path>
    <path
      d="M613.459705,524.524489 C606.720111,523.86514 604.678901,523.736751 601.348584,523.829312 C597.215435,523.945607 592.627146,524.895329 587.583715,526.678478 C585.105106,527.852458 583.442545,528.943788 582.596033,529.952467 C582.333907,530.662062 582.404554,531.602671 582.807976,532.774294 L584.004086,532.36244 C584.686922,531.742253 585.20624,531.317422 585.56204,531.08795 C586.969302,530.180338 588.055027,529.755943 588.179367,529.697393 C593.369323,527.253535 596.155623,527.014986 603.192786,526.248335 C607.855431,525.740371 611.967776,526.223745 616.090659,526.133158 C616.823998,526.117045 614.959181,524.671187 613.459705,524.524489 Z"
      id="路径"
      fill="#FFFFFF"
      fill-rule="nonzero"
      transform="translate(599.348306, 528.288442) scale(-1, 1) rotate(19.000000) translate(-599.348306, -528.288442) "
    ></path>
    <path
      d="M286.638677,596.139598 C283.705249,593.1571 283.027497,592.289474 280.162289,589.037131 C279.375143,591.295308 280.609028,592.833183 281.757569,594.363021 C286.058998,600.092452 291.316135,602.595829 294.424311,604.221259 C297.532486,605.846688 302.468041,607.148937 307.008419,607.717418 C311.548796,608.285898 314.590871,608.708447 319.960504,611.194263 C323.540259,612.851474 326.520621,615.378224 328.901588,618.774514 C329.216778,619.291312 329.479317,619.386869 329.689205,619.061183 C329.751069,618.965189 329.184277,617.899321 327.98883,615.863579 C325.494318,613.179868 322.992817,611.1437 320.484325,609.755076 C316.721589,607.672138 313.390171,607.181062 308.025371,606.125907 C304.448838,605.422471 301.122017,604.510765 298.044907,603.390788 C292.473337,600.62074 288.67126,598.203677 286.638677,596.139598 Z"
      id="路径"
      fill="#FFFFFF"
      fill-rule="nonzero"
      transform="translate(304.803784, 604.143584) rotate(-20.000000) translate(-304.803784, -604.143584) "
    ></path>
  </g>
</svg>
